<svg id="Group_6236" data-name="Group 6236" xmlns="http://www.w3.org/2000/svg" width="210" height="56" viewBox="0 0 210 56">
  <g id="Rectangle_1347" data-name="Rectangle 1347" stroke="#fff" stroke-width="1">
    <rect width="210" height="56" rx="28" stroke="none"/>
    <rect x="0.5" y="0.5" width="209" height="55" rx="27.5" fill="none"/>
  </g>
  <g id="download" transform="translate(40.714 11.663)">
    <path id="Path_6551" data-name="Path 6551" d="M19.293,15.326a6.2,6.2,0,0,1,.812-3.047,7,7,0,0,1,2.234-2.336,7.142,7.142,0,0,0-2.234-2.031A7.511,7.511,0,0,0,17.16,7.1c-2.234-.2-4.265,1.32-5.382,1.32S8.935,7.1,7.107,7.2A6.486,6.486,0,0,0,3.756,8.217a7.3,7.3,0,0,0-2.437,2.539C-1.22,15.123.709,21.52,3.045,24.973c1.219,1.726,2.64,3.656,4.468,3.554S9.95,27.41,12.184,27.41c2.133,0,2.742,1.117,4.671,1.117S20,26.8,21.222,25.075a11.963,11.963,0,0,0,1.929-3.96,6.027,6.027,0,0,1-3.757-5.687Z" transform="translate(-0.118 0.211)" fill="#fff"/>
    <path id="Path_6552" data-name="Path 6552" d="M15.566,4.87A6.053,6.053,0,0,0,16.987.3a6.394,6.394,0,0,0-4.164,2.133,8.3,8.3,0,0,0-1.219,2.031A4.523,4.523,0,0,0,11.3,6.8a6.024,6.024,0,0,0,2.336-.508,4.347,4.347,0,0,0,1.828-1.523Z" transform="translate(0.054 0.106)" fill="#fff"/>
    <path id="Path_6553" data-name="Path 6553" d="M41.558,24.08H35.364L33.84,28.447H31.2L36.988,12.3H39.73l5.788,16.147h-2.64L41.355,24.08Zm-5.484-2.031h4.874L38.512,14.94h-.1l-2.437,7.109Z" transform="translate(0.363 0.292)" fill="#fff"/>
    <path id="Path_6554" data-name="Path 6554" d="M58.069,22.491c0,3.656-1.929,5.991-4.874,5.991a3.9,3.9,0,0,1-2.133-.508,4.373,4.373,0,0,1-1.523-1.523h-.1V32.24H47V16.6h2.336v1.929h0a3.92,3.92,0,0,1,1.625-1.523,5.458,5.458,0,0,1,2.133-.508C56.038,16.5,58.069,18.836,58.069,22.491Zm-2.437,0c0-2.336-1.219-3.96-3.148-3.96-1.828,0-3.047,1.625-3.047,3.96s1.219,3.96,3.047,3.96C54.413,26.452,55.632,24.929,55.632,22.491Z" transform="translate(0.608 0.357)" fill="#fff"/>
    <path id="Path_6555" data-name="Path 6555" d="M70.769,22.491c0,3.656-1.929,5.991-4.874,5.991a3.9,3.9,0,0,1-2.133-.508,4.373,4.373,0,0,1-1.523-1.523h-.1V32.24H59.7V16.6h2.336v1.929h0a3.92,3.92,0,0,1,1.625-1.523,4.124,4.124,0,0,1,2.133-.508C68.738,16.5,70.769,18.836,70.769,22.491Zm-2.437,0c0-2.336-1.219-3.96-3.148-3.96-1.828,0-3.047,1.625-3.047,3.96s1.219,3.96,3.047,3.96C67.113,26.452,68.332,24.929,68.332,22.491Z" transform="translate(0.805 0.357)" fill="#fff"/>
    <path id="Path_6556" data-name="Path 6556" d="M79.139,23.983c.2,1.625,1.726,2.64,3.859,2.64,2.031,0,3.453-1.015,3.453-2.539,0-1.219-.914-2.031-2.945-2.539l-2.133-.508c-2.945-.711-4.367-2.133-4.367-4.367,0-2.742,2.437-4.671,5.89-4.671s5.788,1.929,5.788,4.671H86.247c-.1-1.625-1.523-2.539-3.453-2.539s-3.25,1.016-3.25,2.437c0,1.117.812,1.828,2.945,2.336l1.828.406c3.351.812,4.671,2.133,4.671,4.468,0,3.047-2.437,4.874-6.195,4.874-3.554,0-5.992-1.828-6.195-4.773h2.437Z" transform="translate(1.067 0.288)" fill="#fff"/>
    <path id="Path_6557" data-name="Path 6557" d="M94.064,13.9v2.742H96.3v1.929H94.064v6.5c0,1.016.406,1.523,1.422,1.523a2.236,2.236,0,0,0,.812-.1v1.929a5.791,5.791,0,0,1-1.32.1c-2.336,0-3.351-.914-3.351-3.148v-6.7H89.9V16.743h1.726V14h2.437Z" transform="translate(1.274 0.317)" fill="#fff"/>
    <path id="Path_6558" data-name="Path 6558" d="M97.5,22.491c0-3.656,2.133-5.991,5.585-5.991s5.585,2.336,5.585,5.991-2.133,5.991-5.585,5.991S97.5,26.147,97.5,22.491Zm8.733,0c0-2.539-1.117-4.062-3.148-4.062-1.929,0-3.148,1.523-3.148,4.062s1.117,4.062,3.148,4.062C105.015,26.553,106.233,25.03,106.233,22.491Z" transform="translate(1.391 0.357)" fill="#fff"/>
    <path id="Path_6559" data-name="Path 6559" d="M110.4,16.6h2.336v2.031h.1a2.721,2.721,0,0,1,1.016-1.523,2.835,2.835,0,0,1,1.828-.609,2.236,2.236,0,0,1,.812.1v2.234a2.017,2.017,0,0,0-1.117-.1,1.831,1.831,0,0,0-1.016.2,2.444,2.444,0,0,0-.812.609,4.116,4.116,0,0,0-.508.914,3.455,3.455,0,0,0-.1,1.016v7.007H110.5V16.7Z" transform="translate(1.591 0.357)" fill="#fff"/>
    <path id="Path_6560" data-name="Path 6560" d="M127.463,24.93c-.3,2.133-2.437,3.554-5.078,3.554-3.453,0-5.585-2.336-5.585-5.991s2.133-6.093,5.484-6.093c3.25,0,5.281,2.234,5.281,5.788V23h-8.327v.1a3,3,0,0,0,.2,1.32,3.052,3.052,0,0,0,1.828,1.828,5.145,5.145,0,0,0,1.32.2,2.312,2.312,0,0,0,1.625-.406,2.4,2.4,0,0,0,1.117-1.32h2.336Zm-8.124-3.554h5.89a2.009,2.009,0,0,0-.2-1.117,2.107,2.107,0,0,0-.609-1.016,2.4,2.4,0,0,0-.914-.609,4.319,4.319,0,0,0-1.117-.2,3.651,3.651,0,0,0-1.117.2,3.38,3.38,0,0,0-1.016.609,2.107,2.107,0,0,0-.609,1.016,4.32,4.32,0,0,0-.2,1.117Z" transform="translate(1.691 0.356)" fill="#fff"/>
    <path id="Path_6561" data-name="Path 6561" d="M35.743.4a3.947,3.947,0,0,1,1.523.2,3.652,3.652,0,0,1,1.219.812,4.174,4.174,0,0,1,.812,1.32,2.613,2.613,0,0,1,.1,1.523c0,2.437-1.32,3.859-3.656,3.859H32.9V.4h2.843ZM34.119,7H35.54a1.67,1.67,0,0,0,1.016-.2,2.4,2.4,0,0,0,.914-.609,2.076,2.076,0,0,0,.508-.914,3.808,3.808,0,0,0,.1-1.117,3.131,3.131,0,0,0-.1-1.016,4.116,4.116,0,0,0-.508-.914,1.479,1.479,0,0,0-.914-.609,3.608,3.608,0,0,0-1.016-.2H34.119Z" transform="translate(0.39 0.108)" fill="#fff"/>
    <path id="Path_6562" data-name="Path 6562" d="M40.6,5.147a3.808,3.808,0,0,1,.1-1.117,2.706,2.706,0,0,1,.609-1.016,5.581,5.581,0,0,1,.914-.711,2.009,2.009,0,0,1,1.117-.2,3.651,3.651,0,0,1,1.117.2,2.047,2.047,0,0,1,.914.711,2.107,2.107,0,0,1,.609,1.016,2.111,2.111,0,0,1,.1,1.117,3.808,3.808,0,0,1-.1,1.117,2.107,2.107,0,0,1-.609,1.016,5.58,5.58,0,0,1-.914.711,2.009,2.009,0,0,1-1.117.2,3.651,3.651,0,0,1-1.117-.2,3.162,3.162,0,0,1-.914-.711A2.107,2.107,0,0,1,40.7,6.264,2.111,2.111,0,0,1,40.6,5.147Zm4.367,0c0-1.219-.609-2.031-1.523-2.031-1.016,0-1.523.711-1.523,2.031s.609,2.031,1.523,2.031C44.46,7.178,44.967,6.467,44.967,5.147Z" transform="translate(0.509 0.134)" fill="#fff"/>
    <path id="Path_6563" data-name="Path 6563" d="M53.4,8.09H52.182L50.964,3.825h-.1L49.643,8.09H48.425L46.8,2.2h1.219l1.016,4.468h.1L50.354,2.2h1.117L52.69,6.668h.1L53.807,2.2h1.117L53.3,8.09Z" transform="translate(0.605 0.136)" fill="#fff"/>
    <path id="Path_6564" data-name="Path 6564" d="M56.2,2.2h1.117v.914h.1a1.806,1.806,0,0,1,.711-.812,1.251,1.251,0,0,1,1.016-.2,1.98,1.98,0,0,1,.812.1,1.822,1.822,0,0,1,.711.508,2.545,2.545,0,0,1,.406.711,2.524,2.524,0,0,1,.1.812V7.991H60.059V4.538c0-.914-.406-1.422-1.219-1.422a1.288,1.288,0,0,0-.609.1c-.2.1-.3.2-.508.3s-.2.3-.3.508a1.288,1.288,0,0,0-.1.609V8.092H56.2V2.2Z" transform="translate(0.751 0.134)" fill="#fff"/>
    <path id="Path_6565" data-name="Path 6565" d="M62.9,0h1.219V8.124H62.9Z" transform="translate(0.855 0.102)" fill="#fff"/>
    <path id="Path_6566" data-name="Path 6566" d="M65.6,5.147a3.808,3.808,0,0,1,.1-1.117,2.107,2.107,0,0,1,.609-1.016,5.58,5.58,0,0,1,.914-.711,2.009,2.009,0,0,1,1.117-.2,3.651,3.651,0,0,1,1.117.2,3.162,3.162,0,0,1,.914.711,3.38,3.38,0,0,1,.609,1.016,2.111,2.111,0,0,1,.1,1.117,3.808,3.808,0,0,1-.1,1.117,2.107,2.107,0,0,1-.609,1.016,5.58,5.58,0,0,1-.914.711,2.009,2.009,0,0,1-1.117.2,3.651,3.651,0,0,1-1.117-.2,3.162,3.162,0,0,1-.914-.711A2.107,2.107,0,0,1,65.7,6.264,2.111,2.111,0,0,1,65.6,5.147Zm4.367,0c0-1.219-.609-2.031-1.523-2.031-1.015,0-1.523.711-1.523,2.031s.609,2.031,1.523,2.031C69.46,7.178,69.967,6.467,69.967,5.147Z" transform="translate(0.896 0.134)" fill="#fff"/>
    <path id="Path_6567" data-name="Path 6567" d="M72.3,6.467c0-1.016.812-1.625,2.133-1.726l1.625-.1V4.131c0-.609-.406-1.016-1.219-1.016-.609,0-1.117.2-1.219.609H72.5C72.6,2.709,73.519,2.1,74.94,2.1s2.336.711,2.336,1.929V7.99H76.159V7.178h-.1a2.373,2.373,0,0,1-.711.711,1.67,1.67,0,0,1-1.016.2,1.728,1.728,0,0,1-.711-.1,2.124,2.124,0,0,1-.609-.406,2.124,2.124,0,0,1-.406-.609,1.883,1.883,0,0,1-.2-.711Zm3.757-.508V5.451l-1.422.1c-.812.1-1.219.3-1.219.812s.508.812,1.117.812a.761.761,0,0,0,.508-.1c.1-.1.3-.1.508-.3.1-.1.3-.3.3-.406a.916.916,0,0,0,.1-.508Z" transform="translate(1.001 0.134)" fill="#fff"/>
    <path id="Path_6568" data-name="Path 6568" d="M78.6,5.181c0-1.828.914-3.047,2.437-3.047a3,3,0,0,1,1.016.2,1.409,1.409,0,0,1,.711.812h.1V-.1h1.117V8.024H82.867V7.11h-.1a2.079,2.079,0,0,1-.812.812,1.251,1.251,0,0,1-1.015.2c-1.523,0-2.437-1.219-2.437-3.047Zm1.219,0c0,1.219.609,2.031,1.523,2.031,1.016,0,1.625-.711,1.625-1.929s-.609-2.031-1.625-2.031S79.82,3.962,79.82,5.181Z" transform="translate(1.097 0.1)" fill="#fff"/>
    <path id="Path_6569" data-name="Path 6569" d="M88.7,5.147a3.808,3.808,0,0,1,.1-1.117,2.706,2.706,0,0,1,.609-1.016,5.58,5.58,0,0,1,.914-.711,2.009,2.009,0,0,1,1.117-.2,3.651,3.651,0,0,1,1.117.2,2.047,2.047,0,0,1,.914.711,3.38,3.38,0,0,1,.609,1.016,2.111,2.111,0,0,1,.1,1.117,3.808,3.808,0,0,1-.1,1.117,2.107,2.107,0,0,1-.609,1.016,5.581,5.581,0,0,1-.914.711,2.009,2.009,0,0,1-1.117.2,3.651,3.651,0,0,1-1.117-.2,3.162,3.162,0,0,1-.914-.711A2.107,2.107,0,0,1,88.8,6.264,2.111,2.111,0,0,1,88.7,5.147Zm4.367,0c0-1.219-.609-2.031-1.523-2.031-1.015,0-1.523.711-1.523,2.031s.609,2.031,1.523,2.031C92.56,7.178,93.067,6.467,93.067,5.147Z" transform="translate(1.254 0.134)" fill="#fff"/>
    <path id="Path_6570" data-name="Path 6570" d="M95.7,2.2h1.117v.914h.1a1.806,1.806,0,0,1,.711-.812,1.251,1.251,0,0,1,1.016-.2,1.98,1.98,0,0,1,.812.1,1.822,1.822,0,0,1,.711.508,2.545,2.545,0,0,1,.406.711,2.524,2.524,0,0,1,.1.812V7.991H99.559V4.538c0-.914-.406-1.422-1.219-1.422a1.288,1.288,0,0,0-.609.1c-.2.1-.3.2-.508.3s-.2.3-.3.508a1.288,1.288,0,0,0-.1.609V8.092H95.7V2.2Z" transform="translate(1.363 0.134)" fill="#fff"/>
    <path id="Path_6571" data-name="Path 6571" d="M107.031.8V2.323h1.32V3.339h-1.219V6.385c0,.609.2.914.812.914h.406v.914c-.2,0-.406.1-.609.1-1.32,0-1.828-.406-1.828-1.625V3.44H105V2.425h.914V.9h1.117Z" transform="translate(1.508 0.114)" fill="#fff"/>
    <path id="Path_6572" data-name="Path 6572" d="M109.8,0h1.117V3.25h.1a2.738,2.738,0,0,1,.711-.812,1.251,1.251,0,0,1,1.016-.2,1.98,1.98,0,0,1,.812.1,1.822,1.822,0,0,1,.711.508,1.637,1.637,0,0,1,.406.711,2.236,2.236,0,0,1,.1.812V8.124h-1.117V4.671c0-.914-.406-1.422-1.219-1.422a1.288,1.288,0,0,0-.609.1,2.22,2.22,0,0,0-.508.3,2.22,2.22,0,0,0-.3.508,1.288,1.288,0,0,0-.1.609V8.226H109.8V0Z" transform="translate(1.582 0.102)" fill="#fff"/>
    <path id="Path_6573" data-name="Path 6573" d="M121.481,6.467a3.092,3.092,0,0,1-.914,1.32,2.98,2.98,0,0,1-1.625.406,3.651,3.651,0,0,1-1.117-.2,3.162,3.162,0,0,1-.914-.711,3.38,3.38,0,0,1-.609-1.016,2.111,2.111,0,0,1-.1-1.117,2.017,2.017,0,0,1,.1-1.117,2.706,2.706,0,0,1,.609-1.016,5.581,5.581,0,0,1,.914-.711,2.009,2.009,0,0,1,1.117-.2c1.625,0,2.64,1.117,2.64,2.945v.406h-4.164v.1a1.288,1.288,0,0,0,.1.609,2.219,2.219,0,0,0,.3.508,1.014,1.014,0,0,0,.508.406,1.288,1.288,0,0,0,.609.1,2.236,2.236,0,0,0,.812-.1,1.724,1.724,0,0,0,.609-.609Zm-4.062-1.929h2.945a1.288,1.288,0,0,0-.1-.609c-.1-.2-.2-.3-.3-.508a.863.863,0,0,0-.508-.3c-.2,0-.406-.1-.609-.1a1.288,1.288,0,0,0-.609.1c-.2.1-.3.2-.508.3s-.2.3-.3.508a1.288,1.288,0,0,0-.1.609Z" transform="translate(1.681 0.134)" fill="#fff"/>
  </g>
</svg>
