<svg xmlns="http://www.w3.org/2000/svg" xmlns:xlink="http://www.w3.org/1999/xlink" width="469.395" height="846" viewBox="0 0 469.395 846">
  <defs>
    <clipPath id="clip-path">
      <path id="Path_53612" data-name="Path 53612" d="M0,0,469.395,556.522,348,846H0Z" transform="translate(0 4782)" fill="#fff" stroke="#707070" stroke-width="1"/>
    </clipPath>
    <linearGradient id="linear-gradient" x1="0.623" y1="0.314" x2="1.199" y2="-0.033" gradientUnits="objectBoundingBox">
      <stop offset="0" stop-color="#00613c"/>
      <stop offset="1" stop-color="#fff" stop-opacity="0"/>
    </linearGradient>
  </defs>
  <g id="Mask_Group_69" data-name="Mask Group 69" transform="translate(0 -4782)" clip-path="url(#clip-path)">
    <path id="svg" d="M142.96,441.236v114.13H1v21.426H36.948v67.993H1v21.426H36.948v34H58.353v-34H137.11l27.252-24V576.792H380.373V700.207h21.4V496.8h82.467V622.93l23.827,23.854h12.413v53.423h21.4V646.784H648.605v53.423h21.4V646.784h84.607v53.423h21.4V646.784h191.9V625.358h-191.9V475.375H505.786v-247.4h109v41.71H551.585v67.849l23.256,23.283H674.857v48.137l21.972,22H889.586V165.41h78.329V143.984H889.586V95.132h78.329V73.706H889.586V1h-21.4V409.525H696.259V339.39H572.987V291.11H749.905l26.11-26.283V1h-21.4V110.559H636.193V1h-21.4V206.548H573.414V1h-21.4V206.548H487.524v.286H360.684v-75.42h120.7l24.255-24.283V1.143H365.107V1h-21.4V22.569H484.385V57.708H296.337V1h-21.4V122.7H230.563V46.995H111.856V1h-21.4V44.852L114,68.421h95.165v75.706h65.773v62.707H209.59l-41.8-.143,14.7-14.712-10.272-10.285-35.67,35.71,35.67,35.711,10.272-10.285-14.7-14.712H339.425v53.137H239.837V475.375H164.5v-30l-25.4-25.426H1.136v21.426H142.96Zm0,203.548H58.5V576.792H142.96ZM670.007,496.8h84.607V625.358H670.15V496.8ZM636.193,131.985H754.614v74.563H636.193Zm0,95.989H754.614v41.71H636.193ZM505.643,496.8H648.605V625.358H505.643Zm-21.4-21.426H360.684V447.664H484.242Zm0-247.115V426.238H360.684V228.26ZM296.195,206.834V79.134H484.242v31H364.108l-24.969,25v71.849H296.195Zm-35.1,95.989h78.187V475.375H261.1ZM164.361,496.8H380.373v58.565H164.5V496.8Z" transform="matrix(0.574, 0.819, -0.819, 0.574, -33.354, 4728.557)" opacity="0.03" fill="url(#linear-gradient)"/>
  </g>
</svg>
