<svg xmlns="http://www.w3.org/2000/svg" width="73.807" height="73.807" viewBox="0 0 73.807 73.807">
  <g id="Group_7023" data-name="Group 7023" transform="translate(6609 1300.194)">
    <g id="Group_6990" data-name="Group 6990" transform="translate(-6609 -1300.194)">
      <rect id="Rectangle_1707" data-name="Rectangle 1707" width="67.822" height="67.822" transform="translate(2.992 3.186)" fill="#fff"/>
      <g id="Group_6871" data-name="Group 6871" transform="translate(0 0)">
        <g id="Group_14632" data-name="Group 14632">
          <g id="Group_84" data-name="Group 84" transform="translate(11.328 22.322)">
            <g id="Fasa" transform="translate(0 7.435)">
              <g id="Fasa-2" style="mix-blend-mode: normal;isolation: isolate">
                <g id="Group_6870" data-name="Group 6870" style="mix-blend-mode: normal;isolation: isolate">
                  <path id="Path_41112" data-name="Path 41112" d="M95.393,152.805v1.612h-3.18v8.189h-3.18V148.057c-1.285.087-2.091.74-2.091,3.006a3.982,3.982,0,0,0,.893,2.984c-1.961,0-2.919-.871-2.919-2.875,0-2.744,1.808-4.9,6.055-4.9,1.481,0,2.483.261,3.942.261a5.974,5.974,0,0,0,1.938-.261c-.022,2.308-.871,2.614-1.873,2.614a15.358,15.358,0,0,1-2.766-.392v4.313Z" transform="translate(-84.916 -146.271)" fill="#00613c"/>
                  <path id="Path_41113" data-name="Path 41113" d="M117.212,157.256v7.406c0,1.22.283,1.5,1.133,1.5s1.459-.828,1.546-1.917h.915c-.479,3.55-2.526,4.03-3.7,4.03a2.391,2.391,0,0,1-2.592-2,3,3,0,0,1-2.809,2c-1.83,0-3.834-1.263-3.834-5.053,0-2.657,1.133-6.077,4.16-6.077a1.926,1.926,0,0,1,2.047,1.154v-1.046Zm-3.137,2.091a1.122,1.122,0,0,0-1.067-.849c-1.415,0-1.96,2.635-1.96,4.53,0,3.093,1.067,3.137,1.612,3.137.631,0,1.415-.653,1.415-1.917Z" transform="translate(-96.607 -151.811)" fill="#00613c"/>
                  <path id="Path_41114" data-name="Path 41114" d="M140.688,163.66a10.306,10.306,0,0,1-2.853,2.788,4.012,4.012,0,0,1-3.049,1.242,3.529,3.529,0,0,1-3.834-3.224,1.722,1.722,0,0,1,.806-1.59,26.264,26.264,0,0,0,1.655-6.447l3.137-.436c1.459,5.641,1.895,6.491,1.895,8.625v.131a10.2,10.2,0,0,0,1.329-1.089Zm-7.972,1.067a.789.789,0,0,1-.653-.283c.217,1.024.7,1.525,1.655,1.525a1.389,1.389,0,0,0,1.546-1.525c0-1.546-.3-2.265-1.2-5.532a35.317,35.317,0,0,1-1.2,4.029.994.994,0,0,1,.61.915A.811.811,0,0,1,132.716,164.727Z" transform="translate(-108.366 -151.223)" fill="#00613c"/>
                  <path id="Path_41115" data-name="Path 41115" d="M157.521,157.256v7.406c0,1.22.283,1.5,1.132,1.5a.864.864,0,0,0,.436-.087c-.261,1.633-.61,2.2-1.83,2.2a2.3,2.3,0,0,1-2.439-2,3,3,0,0,1-2.81,2c-1.83,0-3.833-1.263-3.833-5.053,0-2.657,1.132-6.077,4.16-6.077a1.926,1.926,0,0,1,2.047,1.154v-1.046Zm-6.164,5.772c0,3.093,1.068,3.137,1.612,3.137.631,0,1.415-.632,1.415-1.9v-4.944a1.154,1.154,0,0,0-1.067-.828C151.9,158.5,151.357,161.133,151.357,163.028Z" transform="translate(-117.14 -151.811)" fill="#00613c"/>
                </g>
              </g>
            </g>
            <g id="Layer_5" data-name="Layer 5" transform="translate(41.994 7.37)">
              <g id="Ellipse_58" data-name="Ellipse 58" transform="translate(1.976 2.171)">
                <circle id="Ellipse_41" data-name="Ellipse 41" cx="0.992" cy="0.992" r="0.992" fill="#00613c"/>
              </g>
              <g id="Path_11209" data-name="Path 11209">
                <path id="Path_41116" data-name="Path 41116" d="M173.892,154.953h0a1.011,1.011,0,0,0,1.395-.149,7.51,7.51,0,0,0,1.213-3.084h0a7.519,7.519,0,0,0-2.757,1.838,1.094,1.094,0,0,0-.084.138l.023-1.659a1.009,1.009,0,0,0,.211.235h0a1.011,1.011,0,0,0,1.395-.149,7.51,7.51,0,0,0,1.213-3.084h0a7.518,7.518,0,0,0-2.757,1.838c-.017.023-.032.047-.047.071l.009-.683a1.029,1.029,0,0,0,.764-.965,7.523,7.523,0,0,0-.992-3.162h0a7.519,7.519,0,0,0-.992,3.162,1.022,1.022,0,0,0,.823.977h0l.009.678c-.016-.026-.032-.053-.051-.078a7.527,7.527,0,0,0-2.757-1.838h0a7.51,7.51,0,0,0,1.213,3.084,1.011,1.011,0,0,0,1.395.149h0a1.017,1.017,0,0,0,.214-.24l.022,1.672a1.2,1.2,0,0,0-.087-.144,7.519,7.519,0,0,0-2.757-1.838h0a7.515,7.515,0,0,0,1.212,3.084,1.011,1.011,0,0,0,1.395.149h0a.988.988,0,0,0,.249-.3l.025,1.886a1.185,1.185,0,0,0-.125-.225,7.516,7.516,0,0,0-2.757-1.838h0a7.515,7.515,0,0,0,1.212,3.084,1.011,1.011,0,0,0,1.395.149h0a.97.97,0,0,0,.285-.374l.027,2.038a1.157,1.157,0,0,0-.162-.328,7.52,7.52,0,0,0-2.757-1.838h0a7.511,7.511,0,0,0,1.212,3.084,1.01,1.01,0,0,0,1.395.15h0a.957.957,0,0,0,.319-.47l.045,3.4h.047l.046-3.4a.965.965,0,0,0,.318.465h0a1.01,1.01,0,0,0,1.395-.15,7.507,7.507,0,0,0,1.213-3.084h0a7.512,7.512,0,0,0-2.757,1.838,1.155,1.155,0,0,0-.16.323l.027-2.028a.976.976,0,0,0,.282.368h0a1.011,1.011,0,0,0,1.395-.149,7.51,7.51,0,0,0,1.213-3.084h0a7.519,7.519,0,0,0-2.757,1.838,1.137,1.137,0,0,0-.122.219l.025-1.875A.986.986,0,0,0,173.892,154.953Z" transform="translate(-170.51 -146.137)" fill="#00613c"/>
              </g>
            </g>
            <g id="Layer_6" data-name="Layer 6" transform="translate(43.041)">
              <g id="Path_11210" data-name="Path 11210" transform="translate(1.023 3.081)">
                <path id="Path_41117" data-name="Path 41117" d="M174.729,137.395h0l.009.036Z" transform="translate(-174.729 -137.395)" fill="#469ae3"/>
              </g>
              <g id="Group_80" data-name="Group 80">
                <g id="Ellipse_59" data-name="Ellipse 59" transform="translate(1.578 6.096)">
                  <circle id="Ellipse_42" data-name="Ellipse 42" cx="0.485" cy="0.485" r="0.485" fill="#469ae3"/>
                </g>
                <g id="Path_11211" data-name="Path 11211" transform="translate(0.898 4.112)">
                  <path id="Path_41118" data-name="Path 41118" d="M175.526,139.5a2.645,2.645,0,0,0-.682.09.463.463,0,0,0,.092.916.487.487,0,0,0,.128-.018h0a1.719,1.719,0,0,1,2.118,1.192c.015.054.027.108.037.164h0a.463.463,0,0,0,.918-.084.471.471,0,0,0-.014-.111A2.646,2.646,0,0,0,175.526,139.5Z" transform="translate(-174.473 -139.497)" fill="#469ae3"/>
                </g>
                <g id="Path_11212" data-name="Path 11212" transform="translate(0.45 2.04)">
                  <path id="Path_41119" data-name="Path 41119" d="M175.061,135.274a4.726,4.726,0,0,0-1.149.141h0a.462.462,0,1,0,.222.9h0a3.793,3.793,0,0,1,4.6,2.753c.009.038.019.077.027.115h0a.463.463,0,0,0,.916-.094.454.454,0,0,0-.014-.109A4.718,4.718,0,0,0,175.061,135.274Z" transform="translate(-173.56 -135.274)" fill="#469ae3"/>
                </g>
                <g id="Path_11213" data-name="Path 11213">
                  <path id="Path_41120" data-name="Path 41120" d="M181.118,136.3h0a6.752,6.752,0,0,0-8.1-5.007l-.015,0H173a.463.463,0,0,0,.109.912.434.434,0,0,0,.109-.014h0a5.827,5.827,0,0,1,7,4.307h0a.463.463,0,0,0,.914-.1A.414.414,0,0,0,181.118,136.3Z" transform="translate(-172.643 -131.116)" fill="#469ae3"/>
                </g>
              </g>
            </g>
          </g>
          <g id="Union_1" data-name="Union 1">
            <path id="Path_41121" data-name="Path 41121" d="M59.889,157.7V83.89H133.7V157.7Zm69.747-4.06V87.95H63.949v65.688Z" transform="translate(-59.889 -83.89)" fill="#ffe366"/>
          </g>
        </g>
      </g>
    </g>
  </g>
</svg>
