<svg xmlns="http://www.w3.org/2000/svg" xmlns:xlink="http://www.w3.org/1999/xlink" width="210" height="57" viewBox="0 0 210 57">
  <defs>
    <linearGradient id="linear-gradient" x1="0.914" y1="0.05" x2="-0.62" y2="0.261" gradientUnits="objectBoundingBox">
      <stop offset="0" stop-color="#00a0ff"/>
      <stop offset="0.007" stop-color="#00a1ff"/>
      <stop offset="0.26" stop-color="#00beff"/>
      <stop offset="0.512" stop-color="#00d2ff"/>
      <stop offset="0.76" stop-color="#00dfff"/>
      <stop offset="1" stop-color="#00e3ff"/>
    </linearGradient>
    <linearGradient id="linear-gradient-2" x1="1.076" y1="0.5" x2="-1.306" y2="0.5" gradientUnits="objectBoundingBox">
      <stop offset="0" stop-color="#ffe000"/>
      <stop offset="0.409" stop-color="#ffbd00"/>
      <stop offset="0.775" stop-color="orange"/>
      <stop offset="1" stop-color="#ff9c00"/>
    </linearGradient>
    <linearGradient id="linear-gradient-3" x1="0.862" y1="0.179" x2="-0.092" y2="2.263" gradientUnits="objectBoundingBox">
      <stop offset="0" stop-color="#ff3a44"/>
      <stop offset="1" stop-color="#c31162"/>
    </linearGradient>
    <linearGradient id="linear-gradient-4" x1="-0.188" y1="-0.542" x2="0.238" y2="0.39" gradientUnits="objectBoundingBox">
      <stop offset="0" stop-color="#32a071"/>
      <stop offset="0.068" stop-color="#2da771"/>
      <stop offset="0.476" stop-color="#15cf74"/>
      <stop offset="0.801" stop-color="#06e775"/>
      <stop offset="1" stop-color="#00f076"/>
    </linearGradient>
  </defs>
  <g id="Group_6163" data-name="Group 6163" transform="translate(2.699)">
    <g id="Rectangle_1347" data-name="Rectangle 1347" transform="translate(-2.699 0)" stroke="#fff" stroke-width="1">
      <rect width="210" height="57" rx="28.5" stroke="none"/>
      <rect x="0.5" y="0.5" width="209" height="56" rx="28" fill="none"/>
    </g>
    <g id="download_1_" data-name="download (1)" transform="translate(33.889 11)">
      <path id="Path_6575" data-name="Path 6575" d="M68.305,17.595A5.009,5.009,0,1,0,73.329,22.6,4.93,4.93,0,0,0,68.305,17.595Zm0,8.033a2.9,2.9,0,0,1-2.824-3.036,2.832,2.832,0,1,1,5.649,0A2.89,2.89,0,0,1,68.305,25.628Zm-10.96-8.033A5.009,5.009,0,1,0,62.369,22.6,4.93,4.93,0,0,0,57.345,17.595Zm0,8.033a2.9,2.9,0,0,1-2.825-3.036,2.832,2.832,0,1,1,5.649,0A2.891,2.891,0,0,1,57.345,25.628ZM44.3,19.125v2.12h5.088a4.468,4.468,0,0,1-1.151,2.669,5.192,5.192,0,0,1-3.926,1.556,5.653,5.653,0,0,1,0-11.3,5.431,5.431,0,0,1,3.832,1.518l1.5-1.5a7.392,7.392,0,0,0-5.323-2.146,7.884,7.884,0,0,0-7.889,7.772,7.874,7.874,0,0,0,7.889,7.772,7.114,7.114,0,0,0,5.429-2.185A7.034,7.034,0,0,0,51.6,20.422a6.549,6.549,0,0,0-.118-1.321H44.3S44.3,19.125,44.3,19.125Zm53.346,1.65a4.654,4.654,0,0,0-4.29-3.192,4.759,4.759,0,0,0-4.721,5.009A4.9,4.9,0,0,0,93.608,27.6a4.972,4.972,0,0,0,4.172-2.223l-1.7-1.139a2.849,2.849,0,0,1-2.46,1.386,2.558,2.558,0,0,1-2.434-1.518l6.7-2.775S97.648,20.775,97.648,20.775Zm-6.829,1.674a2.749,2.749,0,0,1,2.616-2.918,1.931,1.931,0,0,1,1.859,1.06ZM85.378,27.3h2.2V12.586h-2.2Zm-3.611-8.594h-.079a3.469,3.469,0,0,0-2.642-1.125,5.009,5.009,0,0,0,0,10.009,3.46,3.46,0,0,0,2.642-1.139h.079v.719c0,1.911-1.022,2.942-2.669,2.942a2.777,2.777,0,0,1-2.525-1.779l-1.911.8a4.781,4.781,0,0,0,4.434,2.957c2.578,0,4.762-1.518,4.762-5.22V17.883H81.778v.825h-.012Zm-2.525,6.92a2.872,2.872,0,0,1-2.786-3.021,2.887,2.887,0,0,1,2.786-3.048,2.816,2.816,0,0,1,2.669,3.048A2.781,2.781,0,0,1,79.242,25.628Zm28.7-13.043h-5.259V27.3h2.2V21.729h3.062a4.664,4.664,0,0,0,4.828-4.566,4.669,4.669,0,0,0-4.831-4.577Zm.065,7.088h-3.127v-5.05h3.127a2.526,2.526,0,1,1,0,5.05Zm13.579-2.105a4.142,4.142,0,0,0-3.926,2.249l1.95.81a2.091,2.091,0,0,1,2-1.086,2.124,2.124,0,0,1,2.317,1.9v.156a4.927,4.927,0,0,0-2.29-.564c-2.105,0-4.24,1.151-4.24,3.309a3.4,3.4,0,0,0,3.649,3.244,3.1,3.1,0,0,0,2.8-1.439h.079v1.139h2.12V21.646c0-2.625-1.95-4.078-4.46-4.078Zm-.276,8.06c-.719,0-1.726-.352-1.726-1.257,0-1.139,1.257-1.571,2.328-1.571a3.816,3.816,0,0,1,2,.5A2.648,2.648,0,0,1,121.313,25.628Zm12.47-7.745-2.525,6.383h-.079l-2.616-6.383H126.2l3.926,8.923-2.237,4.959h2.29l6.039-13.882h-2.431ZM113.988,27.3h2.2V12.585h-2.2Z" transform="translate(0.164 2.58)" fill="#fff" fill-rule="evenodd"/>
      <path id="Path_6576" data-name="Path 6576" d="M.537.9A2.385,2.385,0,0,0,0,2.562V28.6a2.27,2.27,0,0,0,.549,1.647l.091.079L15.227,15.736V15.41L.628.821.537.9Z" transform="translate(0 2.529)" fill-rule="evenodd" fill="url(#linear-gradient)"/>
      <path id="Path_6577" data-name="Path 6577" d="M20.012,20.57l-4.865-4.865v-.341L20.012,10.5l.106.065,5.755,3.271c1.647.928,1.647,2.46,0,3.4l-5.755,3.271-.106.065Z" transform="translate(0.068 2.573)" fill-rule="evenodd" fill="url(#linear-gradient-2)"/>
      <path id="Path_6578" data-name="Path 6578" d="M20.183,20.482l-4.971-4.971L.535,30.19a1.926,1.926,0,0,0,2.446.079l17.2-9.786Z" transform="translate(0.002 2.596)" fill-rule="evenodd" fill="url(#linear-gradient-3)"/>
      <path id="Path_6579" data-name="Path 6579" d="M20.183,10.609,2.981.837A1.907,1.907,0,0,0,.535.917L15.213,15.579l4.971-4.971Z" transform="translate(0.002 2.528)" fill-rule="evenodd" fill="url(#linear-gradient-4)"/>
      <path id="Path_6580" data-name="Path 6580" d="M20.078,20.355,2.993,30.062a1.939,1.939,0,0,1-2.355.012l-.091.091.091.079a1.943,1.943,0,0,0,2.355-.012l17.2-9.771-.117-.106Z" transform="translate(0.002 2.617)" fill-rule="evenodd" opacity="0.2"/>
      <path id="Path_6581" data-name="Path 6581" d="M25.85,17.042l-5.875,3.335.106.106,5.755-3.271a2.062,2.062,0,0,0,1.23-1.7A2.118,2.118,0,0,1,25.85,17.042Z" transform="translate(0.09 2.596)" fill-rule="evenodd" opacity="0.12"/>
      <path id="Path_6582" data-name="Path 6582" d="M2.983,1.008,25.94,14.051a2.164,2.164,0,0,1,1.23,1.53,2.062,2.062,0,0,0-1.23-1.7L2.983.838C1.336-.1,0,.682,0,2.564v.17C0,.85,1.336.077,2.983,1.008Z" transform="translate(0 2.528)" fill="#fff" fill-rule="evenodd" opacity="0.25"/>
      <text id="Download_the_App_Now_" data-name="Download the App Now!" transform="translate(37.689 9)" fill="#fff" font-size="9" font-family="Urbanist-Regular, Urbanist"><tspan x="0" y="0">Download the App Now!</tspan></text>
    </g>
  </g>
</svg>
