<svg xmlns="http://www.w3.org/2000/svg" xmlns:xlink="http://www.w3.org/1999/xlink" width="788.839" height="834.018" viewBox="0 0 788.839 834.018"><defs><radialGradient id="a" cx="0.087" cy="-0.039" r="0.74" gradientTransform="translate(0.007) scale(0.986 1)" gradientUnits="objectBoundingBox"><stop offset="0" stop-color="#5aa745"/><stop offset="1" stop-color="#3a8a41"/></radialGradient><radialGradient id="b" cx="0.113" cy="-0.1" r="1.325" gradientTransform="translate(0.044) scale(0.913 1)" gradientUnits="objectBoundingBox"><stop offset="0" stop-color="#80b941"/><stop offset="1" stop-color="#5aa745"/></radialGradient><linearGradient id="c" x1="0.376" y1="0.045" x2="1.064" y2="1.695" gradientUnits="objectBoundingBox"><stop offset="0" stop-color="#a6ce38"/><stop offset="0.755" stop-color="#62ab45"/></linearGradient><radialGradient id="d" cx="1.146" cy="-0.117" r="1.442" gradientTransform="translate(-0.061) scale(1.122 1)" xlink:href="#a"/><radialGradient id="e" cx="1.041" cy="-0.044" r="1.059" gradientTransform="translate(-0.045) scale(1.09 1)" xlink:href="#b"/><linearGradient id="f" x1="0.697" y1="-0.104" x2="0.072" y2="1.354" xlink:href="#c"/></defs><g transform="translate(9644 1318)"><circle cx="139.568" cy="139.568" r="139.568" transform="translate(-9346.955 -1045)" fill="#00613c"/><g transform="translate(-9557.784 -1256.026)" fill="none" stroke="#ffdb4e" stroke-linecap="round" stroke-width="2"><circle cx="350.398" cy="350.398" r="350.398" stroke="none"/><circle cx="350.398" cy="350.398" r="349.398" fill="none"/></g><circle cx="94.009" cy="94.009" r="94.009" transform="translate(-9156 -1318)" fill="#fff"/><g transform="translate(-9139 -1300.907)" fill="none" stroke="#00613c" stroke-linecap="round" stroke-width="2" stroke-dasharray="2 7"><ellipse cx="77.574" cy="76.917" rx="77.574" ry="76.917" stroke="none"/><ellipse cx="77.574" cy="76.917" rx="76.574" ry="75.917" fill="none"/></g><g transform="translate(-9113 -1253.137)"><g transform="translate(0 13.294)"><path d="M307.61,111.91V115.4h-6.893v17.751h-6.892V101.618c-2.786.189-4.533,1.606-4.533,6.515,0,4.154,1.275,5.76,1.936,6.468-4.249,0-6.327-1.888-6.327-6.232,0-5.948,3.919-10.622,13.125-10.622,3.21,0,5.382.566,8.545.566a12.941,12.941,0,0,0,4.2-.566c-.047,5-1.888,5.665-4.06,5.665a33.233,33.233,0,0,1-6-.849v9.347Z" transform="translate(-284.902 -97.747)" fill="#00613c"/><path d="M325.565,112.959v2.927c1.369-1.653,3.116-3.163,5.1-3.163a4.275,4.275,0,0,1,4.06,4.2,2.6,2.6,0,0,1-2.738,2.785c-2.833,0-1.794-2.974-3.588-2.974-.944,0-1.841.8-2.833,1.889v17.939h-6.8v-23.6Z" transform="translate(-292.613 -101.157)" fill="#00613c"/><path d="M359.657,128.114h1.6c-1.746,4.343-4.768,8.734-11.188,8.734-5.429,0-9.3-3.115-9.3-10.812,0-5.476,2.124-13.313,10.008-13.313,6,0,6.137,4.486,6.137,5.476,0,5.618-4.58,8.593-9.254,8.828.095,4.2,1.227,5.854,4.627,5.854C356.116,132.882,357.863,130.8,359.657,128.114Zm-8.167-12.888c-2.125,0-3.588,4.438-3.824,9.536a6.3,6.3,0,0,0,5.618-6.515C353.283,116.075,352.386,115.225,351.49,115.225Z" transform="translate(-297.623 -101.157)" fill="#00613c"/><path d="M384.92,127.752a22.343,22.343,0,0,1-6.185,6.043,8.7,8.7,0,0,1-6.609,2.691c-5.523,0-8.309-3.919-8.309-6.987a3.732,3.732,0,0,1,1.747-3.446,56.975,56.975,0,0,0,3.588-13.974l6.8-.945c3.163,12.227,4.108,14.068,4.108,18.7v.283a22.068,22.068,0,0,0,2.879-2.361Zm-17.279,2.313a1.713,1.713,0,0,1-1.416-.613c.472,2.219,1.511,3.3,3.587,3.3a3.012,3.012,0,0,0,3.353-3.3c0-3.352-.661-4.91-2.6-11.992a76.655,76.655,0,0,1-2.6,8.734,2.155,2.155,0,0,1,1.321,1.983A1.758,1.758,0,0,1,367.641,130.065Z" transform="translate(-302.87 -100.795)" fill="#00613c"/><path d="M398.11,114.352c-1.7,0-2.549,1.982-2.738,4.343V133.85h-6.8v-32.1l6.8-.945v11.9a5.591,5.591,0,0,1,4.957-2.644c3.682,0,6.7,2.125,6.7,8.5,0,2.077-.189,5.194-.189,6.987,0,2.644.52,4.014,2.5,4.014a2.606,2.606,0,0,0,1.512-.283c0,3.4-1.464,4.862-4.155,4.862-4.673,0-6.185-3.966-6.185-8.593,0-1.7.1-4.532.1-6.043C400.613,115.816,399.715,114.352,398.11,114.352Z" transform="translate(-308.507 -98.443)" fill="#00613c"/></g><path d="M349.236,101.375s1.443-14.073-4.691-18.4c-6.31-4.454-16.239-1.443-16.239-1.443s-.9,9.2,4.33,14.8C337.343,101.354,349.236,101.375,349.236,101.375Z" transform="translate(-294.771 -80.533)" fill="url(#a)"/><path d="M329.253,83.542s-.541,8.841,4.33,12.991,12.089,4.511,11.728,3.068-3.969-6.5-7.578-9.743a67.14,67.14,0,0,0-5.954-4.872,27.211,27.211,0,0,1,9.924,6.857c3.97,4.33,5.774,7.939,6.5,8.48s.361-10.285-2.346-13.532C340.528,80.4,329.253,83.542,329.253,83.542Z" transform="translate(-294.996 -81.042)" fill="url(#b)"/><path d="M329.258,82.312s8.706-2.251,14.254,1.263C348.925,87,348.384,94.4,348.384,94.4s-1.443-8.119-8.661-11.006A19.833,19.833,0,0,0,329.258,82.312Z" transform="translate(-295.001 -80.776)" fill="url(#c)"/><path d="M356.677,103a16.138,16.138,0,0,1,.18-8.48c2.075-6.135,11.368-5.232,11.368-5.232s1.293,7.431-2.526,10.826C362.451,103,356.677,103,356.677,103Z" transform="translate(-301.129 -82.515)" fill="url(#d)"/><path d="M367.9,91.007s-6.676-.451-9.383,3.338c-2.056,2.879-1.443,8.3-.721,7.217a55.011,55.011,0,0,1,4.691-5.774,17.473,17.473,0,0,1,3.789-2.736s-2.767,2.766-4.812,5.293-2.556,3.458-2.676,4.3,5.683.03,7.848-3.217S367.9,91.007,367.9,91.007Z" transform="translate(-301.343 -82.914)" fill="url(#e)"/><path d="M357.059,97.608s0-4.33,3.068-6.225,7.758-1.623,7.758-1.623-4.781.451-7.668,2.706A8.1,8.1,0,0,0,357.059,97.608Z" transform="translate(-301.331 -82.631)" fill="url(#f)"/></g><circle cx="12.491" cy="12.491" r="12.491" transform="translate(-9355.194 -596.366)" fill="#fff"/><circle cx="12.491" cy="12.491" r="12.491" transform="translate(-8880.143 -854.763)" fill="#fff"/><circle cx="12.491" cy="12.491" r="12.491" transform="translate(-9376.9 -1231.133)" fill="#fff"/><g transform="translate(-9292.768 -827.267) rotate(-90)"><g transform="translate(0 22.617)"><g transform="translate(0 0)" style="isolation:isolate"><g style="isolation:isolate"><path d="M31.868,19.876v4.9H22.195V49.689H12.521V5.432C8.613,5.7,6.162,7.684,6.162,14.575c0,5.831,1.788,8.083,2.716,9.077C2.915,23.651,0,21,0,14.906,0,6.559,5.5,0,18.419,0c4.5,0,7.551.794,11.991.794A18.171,18.171,0,0,0,36.307,0c-.066,7.022-2.65,7.95-5.7,7.95a46.7,46.7,0,0,1-8.414-1.192V19.876Z" transform="translate(0 0)" fill="#fff"/><path d="M28.422.331V22.857c0,3.71.861,4.573,3.446,4.573s4.438-2.518,4.7-5.831h2.782C37.9,32.4,31.67,33.856,28.091,33.856c-4.637,0-6.956-2.319-7.884-6.095-1.391,3.047-3.841,6.095-8.545,6.095C6.095,33.856,0,30.013,0,18.485,0,10.4,3.446,0,12.654,0c2.186,0,5.1.4,6.228,3.512V.331Zm-9.541,6.36a3.412,3.412,0,0,0-3.246-2.583c-4.306,0-5.962,8.015-5.962,13.781,0,9.408,3.246,9.541,4.9,9.541,1.921,0,4.306-1.988,4.306-5.831Z" transform="translate(34.253 16.231)" fill="#fff"/><path d="M29.616,23.321a31.346,31.346,0,0,1-8.68,8.48c-2.252,2.716-6.095,3.777-9.275,3.777C3.91,35.578,0,30.079,0,25.772a5.239,5.239,0,0,1,2.452-4.835A79.89,79.89,0,0,0,7.487,1.325L17.028,0c4.438,17.159,5.764,19.744,5.764,26.236v.4a31.039,31.039,0,0,0,4.041-3.313ZM5.367,26.567a2.4,2.4,0,0,1-1.986-.861c.661,3.115,2.119,4.638,5.035,4.638,2.516,0,4.7-1.193,4.7-4.638,0-4.7-.927-6.89-3.643-16.828A107.44,107.44,0,0,1,5.831,21.135a3.025,3.025,0,0,1,1.855,2.782A2.468,2.468,0,0,1,5.367,26.567Z" transform="translate(68.703 14.509)" fill="#fff"/><path d="M28.422.331V22.857c0,3.71.861,4.573,3.444,4.573a2.628,2.628,0,0,0,1.325-.266c-.794,4.968-1.855,6.692-5.565,6.692-4.373,0-6.559-2.385-7.42-6.095-1.391,3.047-3.843,6.095-8.547,6.095C6.095,33.856,0,30.013,0,18.485,0,10.4,3.444,0,12.654,0c2.186,0,5.1.4,6.228,3.512V.331ZM9.672,17.889c0,9.408,3.247,9.541,4.9,9.541,1.921,0,4.306-1.922,4.306-5.765V6.626a3.509,3.509,0,0,0-3.246-2.518C11.329,4.109,9.672,12.124,9.672,17.889Z" transform="translate(94.409 16.231)" fill="#fff"/></g></g></g><g transform="translate(127.738 22.417)"><g transform="translate(6.01 6.603)"><ellipse cx="3.017" cy="3.017" rx="3.017" ry="3.017" fill="#fff"/></g><g transform="translate(0 0)"><path d="M10.289,26.817h0a3.075,3.075,0,0,0,4.243-.454c2.612-2.832,3.689-9.377,3.689-9.381h0s-6.171,2.441-8.386,5.592a3.331,3.331,0,0,0-.255.419l.069-5.047a3.067,3.067,0,0,0,.64.713h0a3.075,3.075,0,0,0,4.243-.454c2.612-2.833,3.689-9.377,3.689-9.381h0s-6.171,2.441-8.386,5.592c-.051.07-.1.142-.143.216l.028-2.079a3.131,3.131,0,0,0,2.324-2.936C12.3,5.774,9.029,0,9.027,0h0S5.756,5.775,6.01,9.618a3.11,3.11,0,0,0,2.5,2.971h0l.027,2.061c-.048-.081-.1-.161-.154-.237C6.169,11.263,0,8.823,0,8.821H0S1.078,15.37,3.689,18.2a3.075,3.075,0,0,0,4.243.454h0a3.1,3.1,0,0,0,.651-.73l.067,5.085a3.649,3.649,0,0,0-.264-.439C6.169,19.42,0,16.982,0,16.98H0s1.078,6.549,3.688,9.381a3.075,3.075,0,0,0,4.243.454h0a3.006,3.006,0,0,0,.758-.913l.076,5.738a3.61,3.61,0,0,0-.379-.685C6.171,27.8,0,25.364,0,25.363H0s1.078,6.549,3.688,9.381a3.075,3.075,0,0,0,4.243.454h0A2.95,2.95,0,0,0,8.8,34.061l.082,6.2a3.524,3.524,0,0,0-.492-1C6.169,36.111,0,33.672,0,33.671H0s1.078,6.548,3.688,9.38a3.074,3.074,0,0,0,4.243.455h0a2.91,2.91,0,0,0,.972-1.43l.137,10.35h.143l.139-10.333a2.935,2.935,0,0,0,.967,1.413h0a3.073,3.073,0,0,0,4.243-.455c2.612-2.831,3.689-9.375,3.689-9.38h0s-6.171,2.44-8.386,5.592a3.512,3.512,0,0,0-.488.982l.084-6.168a2.969,2.969,0,0,0,.858,1.119h0a3.075,3.075,0,0,0,4.243-.454c2.612-2.833,3.689-9.377,3.689-9.381h0S12.049,27.8,9.835,30.953a3.453,3.453,0,0,0-.37.666l.076-5.7A3,3,0,0,0,10.289,26.817Z" transform="translate(0)" fill="#fff"/></g></g><g transform="translate(130.922 0)"><g transform="translate(3.112 9.371)"><path d="M0,0H0L.028.11Z" transform="translate(0 0)" fill="#469ae3"/></g><g transform="translate(0 0)"><g transform="translate(4.801 18.544)"><ellipse cx="1.475" cy="1.475" rx="1.475" ry="1.475" transform="translate(0)" fill="#469ae3"/></g><g transform="translate(2.731 12.508)"><path d="M3.2,0A8.048,8.048,0,0,0,1.128.275a1.408,1.408,0,0,0,.28,2.788A1.482,1.482,0,0,0,1.8,3.007v0A5.228,5.228,0,0,1,8.239,6.635c.045.164.084.33.113.5h0a1.408,1.408,0,0,0,2.792-.255,1.433,1.433,0,0,0-.042-.337A8.048,8.048,0,0,0,3.2,0Z" transform="translate(0 0)" fill="#469ae3"/></g><g transform="translate(1.368 6.205)"><path d="M4.565,0a14.379,14.379,0,0,0-3.5.43v0a1.406,1.406,0,1,0,.674,2.73v0A11.539,11.539,0,0,1,15.75,11.538c.028.116.057.233.082.349h0a1.409,1.409,0,0,0,2.788-.287,1.385,1.385,0,0,0-.042-.333A14.352,14.352,0,0,0,4.565,0Z" transform="translate(0 0)" fill="#469ae3"/></g><g transform="translate(0 0)"><path d="M25.779,15.767h0A20.539,20.539,0,0,0,1.141.536L1.1.545l-.021,0h0a1.407,1.407,0,0,0,.333,2.774,1.323,1.323,0,0,0,.333-.042v0a17.726,17.726,0,0,1,21.287,13.1h0a1.407,1.407,0,0,0,2.78-.309A1.261,1.261,0,0,0,25.779,15.767Z" transform="translate(0 0)" fill="#469ae3"/></g></g></g></g><circle cx="94.009" cy="94.009" r="94.009" transform="translate(-9156 -672)" fill="#fff"/><g transform="translate(-9140 -655)" fill="none" stroke="#00613c" stroke-linecap="round" stroke-width="2" stroke-dasharray="2 7"><ellipse cx="77.574" cy="76.917" rx="77.574" ry="76.917" stroke="none"/><ellipse cx="77.574" cy="76.917" rx="76.574" ry="75.917" fill="none"/></g><g transform="translate(1145.382 1378.349)"><g transform="translate(-10189.251 -1977.349)"><circle cx="1.21" cy="1.21" r="1.21" transform="translate(0.305 7.222)" fill="#00613c"/><circle cx="1.21" cy="1.21" r="1.21" transform="translate(36.092 12.104)" fill="#00613c"/><circle cx="1.21" cy="1.21" r="1.21" transform="translate(19.882 4.706)" fill="#00613c"/><circle cx="1.21" cy="1.21" r="1.21" transform="translate(31.304 1.769)" fill="#00613c"/><circle cx="1.21" cy="1.21" r="1.21" transform="translate(15.876 13.315)" fill="#00613c"/><circle cx="2.432" cy="2.432" r="2.432" transform="translate(0 11.499)" fill="#00613c"/><circle cx="2.275" cy="2.275" r="2.275" transform="translate(10.532 0)" fill="#00613c"/><circle cx="2.275" cy="2.275" r="2.275" transform="translate(23.658 5.61)" fill="#00613c"/><circle cx="2.432" cy="2.432" r="2.432" transform="translate(33.865 16.47)" fill="#00613c"/><rect width="4.903" height="21.294" transform="translate(16.732 21.446)" fill="#00613c"/><rect width="2.451" height="21.294" transform="translate(35.105 18.36) rotate(45)" fill="#00613c"/><rect width="1.226" height="21.294" transform="translate(25.32 7.831)" fill="#00613c"/><rect width="0.614" height="11.489" transform="translate(37.302 13.007) rotate(90)" fill="#00613c"/><rect width="2.451" height="21.294" transform="translate(18.77 28.535) rotate(135)" fill="#00613c"/><rect width="1.226" height="21.294" transform="translate(13.497 24.243) rotate(-180)" fill="#00613c"/><rect width="0.614" height="11.489" transform="translate(13.004 8.125) rotate(90)" fill="#00613c"/><rect width="0.614" height="11.489" transform="translate(20.93 5.912) rotate(45)" fill="#00613c"/><rect width="0.614" height="11.489" transform="translate(25.914 22.989) rotate(135)" fill="#00613c"/><rect width="0.614" height="10.151" transform="translate(32.15 3.384)" fill="#00613c"/></g><g transform="translate(-10264.382 -1968.424)"><g transform="translate(0 0)"><path d="M366.7,437.863v28.779h-6.5V436.966h-.448c-5.424,0-6.948,2.555-6.948,6.9,0,3.9,1.21,4.617,1.659,5.2-3.765,0-6.007-1.524-6.007-6.007,0-5.648,3.586-10,13.359-10,4.8,0,7.441,1.031,11.162,1.031a13.092,13.092,0,0,0,5.29-.941,10.112,10.112,0,0,1,.134,1.569c0,2.69-1.345,4.124-4.752,4.124A36.822,36.822,0,0,1,366.7,437.863Z" transform="translate(-348.456 -433.066)" fill="#00613c"/><path d="M505.7,512.929h1.524c-1.659,4.124-4.528,8.293-10.624,8.293-5.155,0-8.831-2.959-8.831-10.266,0-5.2,2.017-12.641,9.5-12.641,5.693,0,5.828,4.259,5.828,5.2,0,5.334-4.348,8.159-8.786,8.383.09,3.99,1.165,5.558,4.393,5.558C502.343,517.456,504,515.484,505.7,512.929Zm-7.755-12.238c-2.017,0-3.407,4.214-3.631,9.055a5.98,5.98,0,0,0,5.334-6.186C499.653,501.5,498.8,500.691,497.95,500.691Z" transform="translate(-464.419 -487.377)" fill="#00613c"/><path d="M602.112,504.143c0-2.421-.762-3.452-1.838-3.452-2.421,0-3.452,5.379-3.452,9.817,0,5.559,1.614,6.948,4.617,6.948,3.541,0,5.245-1.972,6.948-4.527h1.524c-1.659,4.124-4.572,8.293-10.669,8.293-5.065,0-8.786-2.869-8.786-10.31,0-5.065,1.7-12.6,9.189-12.6,4.662,0,5.917,2.914,5.917,5.021,0,1.569-.673,2.69-1.748,2.69a4.172,4.172,0,0,1-1.838-.538A6.213,6.213,0,0,0,602.112,504.143Z" transform="translate(-549.889 -487.377)" fill="#00613c"/><path d="M706.474,459.035c-1.614,0-2.421,1.883-2.6,4.124v14.389h-6.455V447.067l6.455-.9v11.3a5.308,5.308,0,0,1,4.707-2.51c3.5,0,6.365,2.017,6.365,8.069,0,1.972-.18,4.931-.18,6.634,0,2.511.493,3.81,2.376,3.81a2.472,2.472,0,0,0,1.435-.269c0,3.227-1.39,4.617-3.945,4.617-4.438,0-5.872-3.766-5.872-8.159,0-1.614.09-4.3.09-5.738C708.85,460.425,708,459.035,706.474,459.035Z" transform="translate(-638.921 -443.973)" fill="#00613c"/></g></g></g><circle cx="94.009" cy="94.009" r="94.009" transform="translate(-9644 -1004)" fill="#fff"/><g transform="translate(-9626.858 -986.86)" fill="none" stroke="#00613c" stroke-linecap="round" stroke-width="2" stroke-dasharray="2 7"><ellipse cx="77.574" cy="76.917" rx="77.574" ry="76.917" stroke="none"/><ellipse cx="77.574" cy="76.917" rx="76.574" ry="75.917" fill="none"/></g><path d="M0,15.068C0,8.25,2.136,0,9.992,0c3.814,0,7.323,1.921,7.323,5.952,0,1.507-.5,2.562-2.06,2.562a3.468,3.468,0,0,1-2.4-.98,3.469,3.469,0,0,0,1.106-2.712,2.836,2.836,0,0,0-2.67-3.051c-3.432,0-5.073,6.4-5.073,12.7,0,8.363,2.9,10.963,6.56,10.963A7.434,7.434,0,0,0,18.8,22.386a14.5,14.5,0,0,1-.189-2.42c0-4.295,1.563-10.737,8.162-10.737,3.471,0,5.607,1.808,6.216,5.952h.267A7.307,7.307,0,0,0,36,14.438V9.418H41.5v1.959a4.582,4.582,0,0,1,4.081-2.11c2.9,0,5.339,1.658,5.339,6.931,0,1.319-.152,4.106-.152,5.388,0,2.147.3,3.24,1.869,3.24,1.754,0,2.212-1.394,2.631-3.315h0V9.418h5.492v1.959a4.581,4.581,0,0,1,4.081-2.11c2.9,0,5.339,1.658,5.339,6.931,0,1.319-.153,4.106-.153,5.388,0,2.147.305,3.24,1.869,3.24,1.336,0,1.92-.808,2.307-2.041a13.94,13.94,0,0,1-.285-2.932c0-4.37,1.716-10.623,8.086-10.623,4.843,0,4.958,3.579,4.958,4.37,0,4.483-3.7,6.856-7.476,7.045.077,3.353.992,4.671,3.738,4.671,2.776,0,4.2-1.339,5.509-3.168a15.1,15.1,0,0,1-.169-2.332c0-4.256,1.449-10.585,7.819-10.585,3.966,0,5.034,2.449,5.034,4.219,0,1.318-.572,2.26-1.488,2.26a3.575,3.575,0,0,1-1.563-.452,5.184,5.184,0,0,0,.114-1.13c0-2.034-.648-2.9-1.563-2.9-2.06,0-2.936,4.521-2.936,8.25,0,4.671,1.373,5.839,3.928,5.839,3.013,0,4.462-1.658,5.911-3.8h.152V10.925h-1.22V9.418h1.22v-5.2l5.492-.753V9.418h2.288v1.507H109.46v11.3c0,2.11.5,2.6,1.984,2.6a1.621,1.621,0,0,0,1.067-.3,5.476,5.476,0,0,1,.038.791,3.005,3.005,0,0,1-3.28,3.164c-3.5,0-4.97-1.852-5.25-4.731a8.79,8.79,0,0,1-7.984,4.731c-3.156,0-5.7-1.293-6.833-4.44a8.651,8.651,0,0,1-7.774,4.44c-2.727,0-4.968-.961-6.273-3.165a4.668,4.668,0,0,1-4.674,3.165c-3.928,0-5.568-2.788-5.568-7.045,0-.9.076-3.579.076-4.558,0-3.014-.724-4.181-1.983-4.181-1.526,0-2.1,1.733-2.25,3.466V28.254H55.265V26.465a4.514,4.514,0,0,1-4.043,2.015c-3.928,0-5.568-2.788-5.568-7.045,0-.9.077-3.579.077-4.558,0-3.014-.725-4.181-1.984-4.181-1.525,0-2.1,1.733-2.25,3.466V28.254H36V16.166a14.489,14.489,0,0,1-2.86.861,9.2,9.2,0,0,1,.038,1.017c0,5.8-1.945,10.435-7.437,10.435a6.41,6.41,0,0,1-6.419-4.159c-1.756,2.947-5.11,4.536-8.952,4.536C3.852,28.857,0,24.26,0,15.068Zm24.218,4.521c0,4.52,1.449,5.349,2.594,5.349,2.174,0,3.089-3.089,3.089-7.2v-.565a1.657,1.657,0,0,1-1.487-1.884c0-1.055.381-1.582.953-1.77-.534-1.7-1.449-2.034-2.021-2.034C25.1,11.49,24.218,16.086,24.218,19.589Zm55.265-.754a5.046,5.046,0,0,0,4.539-5.2c0-1.733-.725-2.411-1.449-2.411C80.856,11.226,79.674,14.767,79.483,18.835Z" transform="translate(-9606 -927)" fill="#00613c" stroke="rgba(0,0,0,0)" stroke-miterlimit="10" stroke-width="1"/></g></svg>