<svg xmlns="http://www.w3.org/2000/svg" xmlns:xlink="http://www.w3.org/1999/xlink" width="789.893" height="834.278" viewBox="0 0 789.893 834.278"><defs><radialGradient id="a" cx="0.087" cy="-0.039" r="0.74" gradientTransform="translate(0.007) scale(0.986 1)" gradientUnits="objectBoundingBox"><stop offset="0" stop-color="#5aa745"/><stop offset="1" stop-color="#3a8a41"/></radialGradient><radialGradient id="b" cx="0.113" cy="-0.1" r="1.325" gradientTransform="translate(0.044) scale(0.913 1)" gradientUnits="objectBoundingBox"><stop offset="0" stop-color="#80b941"/><stop offset="1" stop-color="#5aa745"/></radialGradient><linearGradient id="c" x1="0.376" y1="0.045" x2="1.064" y2="1.695" gradientUnits="objectBoundingBox"><stop offset="0" stop-color="#a6ce38"/><stop offset="0.755" stop-color="#62ab45"/></linearGradient><radialGradient id="d" cx="1.146" cy="-0.117" r="1.442" gradientTransform="translate(-0.061) scale(1.122 1)" xlink:href="#a"/><radialGradient id="e" cx="1.041" cy="-0.044" r="1.059" gradientTransform="translate(-0.045) scale(1.09 1)" xlink:href="#b"/><linearGradient id="f" x1="0.697" y1="-0.104" x2="0.072" y2="1.354" xlink:href="#c"/></defs><g transform="translate(8752.054 -1019)"><g transform="translate(-8664.784 1080.974)" fill="none" stroke="#ffdb4e" stroke-linecap="round" stroke-width="2"><circle cx="350.398" cy="350.398" r="350.398" stroke="none"/><circle cx="350.398" cy="350.398" r="349.398" fill="none"/></g><g transform="translate(-8263.457 1019)"><circle cx="94.009" cy="94.009" r="94.009" fill="#fff"/><g transform="translate(17.093 17.093)" fill="none" stroke="#00613c" stroke-linecap="round" stroke-width="2" stroke-dasharray="2 7"><ellipse cx="77.574" cy="76.917" rx="77.574" ry="76.917" stroke="none"/><ellipse cx="77.574" cy="76.917" rx="76.574" ry="75.917" fill="none"/></g><g transform="translate(48.648 72.315)"><g transform="translate(0 11.933)"><path d="M305.285,110.459V113.6H299.1v15.933h-6.186V101.221c-2.5.17-4.069,1.441-4.069,5.848,0,3.729,1.144,5.17,1.738,5.806-3.814,0-5.679-1.695-5.679-5.594,0-5.339,3.517-9.535,11.781-9.535,2.882,0,4.831.508,7.67.508a11.616,11.616,0,0,0,3.772-.508c-.042,4.491-1.695,5.085-3.644,5.085a29.83,29.83,0,0,1-5.382-.763v8.39Z" transform="translate(-284.902 -97.747)" fill="#00613c"/><path d="M324.869,112.935v2.627c1.229-1.484,2.8-2.839,4.577-2.839a3.837,3.837,0,0,1,3.644,3.772,2.337,2.337,0,0,1-2.458,2.5c-2.543,0-1.61-2.67-3.221-2.67-.847,0-1.653.72-2.543,1.7v16.1h-6.1V112.935Z" transform="translate(-295.291 -102.341)" fill="#00613c"/><path d="M357.723,126.538h1.44c-1.567,3.9-4.28,7.84-10.043,7.84-4.873,0-8.348-2.8-8.348-9.7,0-4.915,1.906-11.95,8.984-11.95,5.382,0,5.509,4.026,5.509,4.916,0,5.043-4.111,7.713-8.306,7.924.085,3.772,1.1,5.255,4.153,5.255C354.545,130.818,356.113,128.953,357.723,126.538Zm-7.331-11.569c-1.907,0-3.221,3.983-3.433,8.56A5.652,5.652,0,0,0,352,117.681C352,115.732,351.2,114.969,350.392,114.969Z" transform="translate(-302.041 -102.341)" fill="#00613c"/><path d="M382.76,126.05a20.056,20.056,0,0,1-5.552,5.425,7.806,7.806,0,0,1-5.933,2.415c-4.958,0-7.458-3.517-7.458-6.272a3.35,3.35,0,0,1,1.568-3.093,51.141,51.141,0,0,0,3.221-12.543l6.1-.848c2.839,10.975,3.687,12.628,3.687,16.781v.254a19.808,19.808,0,0,0,2.584-2.119Zm-15.51,2.076a1.538,1.538,0,0,1-1.271-.55c.424,1.992,1.356,2.966,3.22,2.966a2.7,2.7,0,0,0,3.009-2.966c0-3.009-.593-4.407-2.331-10.764a68.808,68.808,0,0,1-2.331,7.84,1.935,1.935,0,0,1,1.186,1.78A1.578,1.578,0,0,1,367.25,128.126Z" transform="translate(-309.111 -101.854)" fill="#00613c"/><path d="M397.134,112.965c-1.526,0-2.288,1.78-2.458,3.9v13.6h-6.1V101.651l6.1-.848v10.679a5.019,5.019,0,0,1,4.45-2.374c3.305,0,6.017,1.907,6.017,7.628,0,1.865-.17,4.662-.17,6.272,0,2.374.467,3.6,2.246,3.6a2.339,2.339,0,0,0,1.357-.254c0,3.051-1.314,4.365-3.73,4.365-4.195,0-5.552-3.56-5.552-7.713,0-1.525.085-4.068.085-5.424C399.38,114.279,398.575,112.965,397.134,112.965Z" transform="translate(-316.705 -98.684)" fill="#00613c"/></g><path d="M347.087,99.241s1.3-12.632-4.211-16.519c-5.664-4-14.577-1.3-14.577-1.3s-.81,8.259,3.887,13.28C336.412,99.222,347.087,99.241,347.087,99.241Z" transform="translate(-298.198 -80.533)" fill="url(#a)"/><path d="M329.251,83.463s-.486,7.936,3.887,11.661,10.851,4.049,10.527,2.754-3.563-5.831-6.8-8.746a60.268,60.268,0,0,0-5.344-4.373,24.425,24.425,0,0,1,8.907,6.155c3.563,3.887,5.183,7.126,5.83,7.612s.324-9.232-2.105-12.147C339.371,80.643,329.251,83.463,329.251,83.463Z" transform="translate(-298.502 -81.219)" fill="url(#b)"/><path d="M329.258,82.239s7.814-2.02,12.794,1.134c4.859,3.077,4.373,9.717,4.373,9.717s-1.3-7.288-7.774-9.879A17.8,17.8,0,0,0,329.258,82.239Z" transform="translate(-298.509 -80.861)" fill="url(#c)"/><path d="M356.625,101.587a14.486,14.486,0,0,1,.162-7.612c1.863-5.507,10.2-4.7,10.2-4.7s1.16,6.67-2.268,9.717C361.808,101.587,356.625,101.587,356.625,101.587Z" transform="translate(-306.765 -83.203)" fill="url(#d)"/><path d="M366.793,91.005s-5.992-.4-8.422,3c-1.845,2.584-1.3,7.45-.648,6.478a49.377,49.377,0,0,1,4.211-5.183,15.684,15.684,0,0,1,3.4-2.456s-2.483,2.483-4.319,4.751-2.295,3.1-2.4,3.86,5.1.027,7.045-2.888S366.793,91.005,366.793,91.005Z" transform="translate(-307.054 -83.741)" fill="url(#e)"/><path d="M357.059,96.8s0-3.887,2.754-5.587,6.964-1.457,6.964-1.457-4.292.4-6.883,2.429A7.272,7.272,0,0,0,357.059,96.8Z" transform="translate(-307.037 -83.36)" fill="url(#f)"/></g><text transform="translate(90.167 155.852)" fill="#00613c" font-size="26" font-family="Hellix-SemiBold, Hellix" font-weight="600" opacity="0"><tspan x="-30.64" y="0">Fasal</tspan><tspan x="-31.364" y="22">Fresh</tspan></text></g><g transform="translate(-8263.457 1665.26)"><circle cx="94.009" cy="94.009" r="94.009" fill="#fff"/><g transform="translate(17.093 17.093)" fill="none" stroke="#00613c" stroke-linecap="round" stroke-width="2" stroke-dasharray="2 7"><ellipse cx="77.574" cy="76.917" rx="77.574" ry="76.917" stroke="none"/><ellipse cx="77.574" cy="76.917" rx="76.574" ry="75.917" fill="none"/></g><path d="M60.534,11.589a9.339,9.339,0,1,0-14.009,8.084v7.7l-14.009,7-14.009-7v-7.7a9.339,9.339,0,1,0-9.339,0V33.156L27.848,42.5v7.7a9.339,9.339,0,1,0,9.339,0V42.5l18.678-9.339V19.673A9.357,9.357,0,0,0,60.534,11.589Zm-46.7-5.837A5.837,5.837,0,1,1,8,11.589,5.835,5.835,0,0,1,13.839,5.752ZM32.517,64.121a5.837,5.837,0,1,1,5.837-5.837A5.835,5.835,0,0,1,32.517,64.121ZM51.2,17.426a5.837,5.837,0,1,1,5.837-5.837A5.835,5.835,0,0,1,51.2,17.426Z" transform="translate(62.15 59.072)" fill="#00613c"/><text transform="translate(93.333 157.852)" fill="#00613c" font-size="28" font-family="Hellix-SemiBold, Hellix" font-weight="600" opacity="0"><tspan x="-32.997" y="0">Fasal</tspan><tspan x="-46.013" y="23">System</tspan></text></g><g transform="translate(-8752.054 1331.738)"><circle cx="94.009" cy="94.009" r="94.009" transform="translate(1.054 1.31)" fill="#fff"/><g transform="translate(42.402) rotate(16)" fill="none" stroke="#00613c" stroke-linecap="round" stroke-width="2" stroke-dasharray="2 7"><ellipse cx="77.574" cy="76.917" rx="77.574" ry="76.917" stroke="none"/><ellipse cx="77.574" cy="76.917" rx="76.574" ry="75.917" fill="none"/></g><path d="M10.406,23.063a6.938,6.938,0,1,0-6.938-6.938A6.944,6.944,0,0,0,10.406,23.063Zm48.564,0a6.938,6.938,0,1,0-6.938-6.938A6.944,6.944,0,0,0,58.97,23.063Zm3.469,3.469H55.5a6.917,6.917,0,0,0-4.889,2.016,15.856,15.856,0,0,1,8.141,11.859h7.154a3.465,3.465,0,0,0,3.469-3.469V33.469A6.944,6.944,0,0,0,62.439,26.532Zm-27.751,0A12.141,12.141,0,1,0,22.547,14.391,12.135,12.135,0,0,0,34.688,26.532ZM43.013,30h-.9a16.762,16.762,0,0,1-14.851,0h-.9A12.491,12.491,0,0,0,13.875,42.488V45.61a5.2,5.2,0,0,0,5.2,5.2H50.3a5.2,5.2,0,0,0,5.2-5.2V42.488A12.491,12.491,0,0,0,43.013,30ZM18.764,28.548a6.917,6.917,0,0,0-4.889-2.016H6.938A6.944,6.944,0,0,0,0,33.469v3.469a3.465,3.465,0,0,0,3.469,3.469h7.144A15.9,15.9,0,0,1,18.764,28.548Z" transform="translate(61.585 -0.94)" fill="#00613c" opacity="0"/><text transform="translate(95.054 79.319)" fill="#00613c" font-size="28" font-family="Hellix-SemiBold, Hellix" font-weight="600"><tspan x="-32.997" y="0">Fasal</tspan><tspan x="-33.776" y="28">Fresh</tspan><tspan x="-33.763" y="56">circle</tspan></text></g><circle cx="12.491" cy="12.491" r="12.491" transform="translate(-8462.194 1740.634)" fill="#fff"/><circle cx="12.491" cy="12.491" r="12.491" transform="translate(-7987.142 1482.237)" fill="#fff"/><circle cx="12.491" cy="12.491" r="12.491" transform="translate(-8483.9 1105.867)" fill="#fff"/></g></svg>