<svg xmlns="http://www.w3.org/2000/svg" width="64.457" height="134.983" viewBox="0 0 64.457 134.983"><g transform="translate(0 134.983) rotate(-90)"><g transform="translate(0 19.478)"><g transform="translate(0 0)" style="isolation:isolate"><g transform="translate(0 0)" style="isolation:isolate"><path d="M27.446,17.117V21.34H19.115V42.793H10.783V4.679c-3.366.229-5.477,1.939-5.477,7.874,0,5.021,1.54,6.961,2.339,7.817C2.51,20.369,0,18.088,0,12.837,0,5.649,4.736,0,15.863,0c3.879,0,6.5.684,10.327.684A15.649,15.649,0,0,0,31.268,0c-.057,6.047-2.283,6.847-4.907,6.847A40.222,40.222,0,0,1,19.115,5.82v11.3Z" fill="#fff"/><path d="M24.478.285v19.4c0,3.2.742,3.938,2.968,3.938S31.268,21.455,31.5,18.6h2.4c-1.255,9.3-6.618,10.556-9.7,10.556-3.993,0-5.991-2-6.79-5.249-1.2,2.625-3.308,5.249-7.359,5.249C5.249,29.158,0,25.848,0,15.919,0,8.958,2.968,0,10.9,0c1.883,0,4.394.343,5.363,3.024V.285ZM16.261,5.763a2.938,2.938,0,0,0-2.8-2.225c-3.708,0-5.135,6.9-5.135,11.868,0,8.1,2.8,8.217,4.222,8.217,1.654,0,3.708-1.712,3.708-5.022Z" transform="translate(29.5 13.979)" fill="#fff"/><path d="M25.506,20.085a27,27,0,0,1-7.475,7.3c-1.94,2.339-5.249,3.253-7.988,3.253C3.367,30.641,0,25.9,0,22.2a4.512,4.512,0,0,1,2.112-4.164A68.8,68.8,0,0,0,6.448,1.141L14.665,0c3.822,14.778,4.964,17,4.964,22.6v.343a26.732,26.732,0,0,0,3.481-2.853Zm-20.884,2.8a2.067,2.067,0,0,1-1.711-.742c.569,2.682,1.825,3.995,4.336,3.995,2.167,0,4.05-1.027,4.05-3.995,0-4.051-.8-5.934-3.137-14.493A92.53,92.53,0,0,1,5.022,18.2a2.6,2.6,0,0,1,1.6,2.4A2.126,2.126,0,0,1,4.622,22.881Z" transform="translate(59.169 12.495)" fill="#fff"/><path d="M24.478.285v19.4c0,3.2.742,3.938,2.966,3.938a2.263,2.263,0,0,0,1.141-.229c-.684,4.279-1.6,5.763-4.793,5.763-3.766,0-5.649-2.054-6.39-5.249-1.2,2.625-3.31,5.249-7.361,5.249C5.249,29.158,0,25.848,0,15.919,0,8.958,2.966,0,10.9,0c1.883,0,4.394.343,5.363,3.024V.285ZM8.33,15.407c0,8.1,2.8,8.217,4.223,8.217,1.654,0,3.708-1.655,3.708-4.965V5.707a3.022,3.022,0,0,0-2.8-2.168C9.757,3.538,8.33,10.442,8.33,15.407Z" transform="translate(81.308 13.979)" fill="#fff"/></g></g></g><g transform="translate(110.012 19.306)"><g transform="translate(5.176 5.687)"><ellipse cx="2.598" cy="2.598" rx="2.598" ry="2.598" fill="#fff"/></g><g transform="translate(0 0)"><path d="M8.861,23.1h0a2.648,2.648,0,0,0,3.654-.391c2.249-2.439,3.177-8.075,3.177-8.079h0s-5.315,2.1-7.222,4.816a2.869,2.869,0,0,0-.22.361l.059-4.347a2.641,2.641,0,0,0,.551.614h0a2.648,2.648,0,0,0,3.654-.391C14.764,13.24,15.692,7.6,15.692,7.6h0S10.377,9.7,8.47,12.416c-.044.06-.084.122-.123.186l.024-1.79a2.7,2.7,0,0,0,2-2.528C10.591,4.973,7.776,0,7.775,0h0s-2.817,4.974-2.6,8.284a2.679,2.679,0,0,0,2.157,2.559h0l.023,1.775c-.041-.069-.085-.139-.132-.2C5.313,9.7,0,7.6,0,7.6H0s.928,5.64,3.177,8.079a2.648,2.648,0,0,0,3.654.391h0a2.666,2.666,0,0,0,.56-.628l.058,4.379a3.143,3.143,0,0,0-.227-.378C5.313,16.725,0,14.625,0,14.624H0s.928,5.64,3.176,8.079a2.648,2.648,0,0,0,3.654.391h0a2.588,2.588,0,0,0,.653-.786l.066,4.942a3.109,3.109,0,0,0-.326-.59C5.315,23.945,0,21.845,0,21.843H0s.928,5.64,3.176,8.079a2.648,2.648,0,0,0,3.654.391h0a2.541,2.541,0,0,0,.746-.979l.071,5.34a3.035,3.035,0,0,0-.424-.86C5.313,31.1,0,29,0,29H0s.928,5.64,3.176,8.078a2.647,2.647,0,0,0,3.654.392h0a2.506,2.506,0,0,0,.837-1.231l.118,8.913h.123l.119-8.9a2.528,2.528,0,0,0,.833,1.217h0a2.647,2.647,0,0,0,3.654-.392C14.764,34.638,15.692,29,15.692,29h0s-5.315,2.1-7.222,4.816a3.024,3.024,0,0,0-.42.846l.072-5.312a2.557,2.557,0,0,0,.739.964h0a2.648,2.648,0,0,0,3.654-.391c2.249-2.44,3.177-8.075,3.177-8.079h0s-5.315,2.1-7.222,4.816a2.974,2.974,0,0,0-.319.573l.066-4.911A2.582,2.582,0,0,0,8.861,23.1Z" transform="translate(0)" fill="#fff"/></g></g><g transform="translate(112.754 0)"><g transform="translate(2.681 8.07)"><path d="M0,0H0L.024.1Z" transform="translate(0 0)" fill="#469ae3"/></g><g transform="translate(0 0)"><g transform="translate(4.135 15.971)"><ellipse cx="1.27" cy="1.27" rx="1.27" ry="1.27" transform="translate(0)" fill="#469ae3"/></g><g transform="translate(2.352 10.772)"><path d="M2.758,0A6.931,6.931,0,0,0,.971.237a1.213,1.213,0,0,0,.242,2.4,1.276,1.276,0,0,0,.334-.048v0A4.5,4.5,0,0,1,7.1,5.714c.039.141.072.284.1.429h0a1.212,1.212,0,0,0,2.4-.22,1.234,1.234,0,0,0-.036-.29A6.931,6.931,0,0,0,2.758,0Z" transform="translate(0 0)" fill="#469ae3"/></g><g transform="translate(1.178 5.344)"><path d="M3.931,0A12.384,12.384,0,0,0,.921.37h0A1.211,1.211,0,1,0,1.5,2.722v0A9.937,9.937,0,0,1,13.564,9.936c.024.1.049.2.071.3h0a1.213,1.213,0,0,0,2.4-.247A1.193,1.193,0,0,0,16,9.7,12.36,12.36,0,0,0,3.931,0Z" transform="translate(0 0)" fill="#469ae3"/></g><g transform="translate(0 0)"><path d="M22.2,13.579h0A17.689,17.689,0,0,0,.983.461L.944.469l-.018,0h0a1.212,1.212,0,0,0,.287,2.389A1.139,1.139,0,0,0,1.5,2.826v0A15.266,15.266,0,0,1,19.832,14.111h0a1.212,1.212,0,0,0,2.394-.266A1.086,1.086,0,0,0,22.2,13.579Z" fill="#469ae3"/></g></g></g></g></svg>