<svg xmlns="http://www.w3.org/2000/svg" xmlns:xlink="http://www.w3.org/1999/xlink" width="576" height="602" viewBox="0 0 576 602">
  <defs>
    <radialGradient id="radial-gradient" cx="0.087" cy="-0.039" r="0.74" gradientUnits="objectBoundingBox">
      <stop offset="0" stop-color="#5aa745"/>
      <stop offset="1" stop-color="#3a8a41"/>
    </radialGradient>
    <radialGradient id="radial-gradient-2" cx="0.113" cy="-0.1" r="1.325" gradientUnits="objectBoundingBox">
      <stop offset="0" stop-color="#80b941"/>
      <stop offset="1" stop-color="#5aa745"/>
    </radialGradient>
    <linearGradient id="linear-gradient" x1="0.376" y1="0.045" x2="1.064" y2="1.695" gradientUnits="objectBoundingBox">
      <stop offset="0" stop-color="#a6ce38"/>
      <stop offset="0.755" stop-color="#62ab45"/>
    </linearGradient>
    <radialGradient id="radial-gradient-3" cx="1.146" cy="-0.117" r="1.442" xlink:href="#radial-gradient"/>
    <radialGradient id="radial-gradient-4" cx="1.041" cy="-0.044" r="1.059" xlink:href="#radial-gradient-2"/>
    <linearGradient id="linear-gradient-2" x1="0.697" y1="-0.104" x2="0.072" y2="1.354" xlink:href="#linear-gradient"/>
  </defs>
  <g id="Group_7030" data-name="Group 7030" transform="translate(-1046 -154)">
    <circle id="Ellipse_57" data-name="Ellipse 57" cx="91" cy="91" r="91" transform="translate(1260 390)" fill="#00613c"/>
    <g id="Ellipse_58" data-name="Ellipse 58" transform="translate(1085 220)" fill="none" stroke="#ffdb4e" stroke-linecap="round" stroke-width="2">
      <circle cx="266.5" cy="266.5" r="266.5" stroke="none"/>
      <circle cx="266.5" cy="266.5" r="265.5" fill="none"/>
    </g>
    <g id="Component_19_1" data-name="Component 19 – 1" transform="translate(1281 154)">
      <circle id="Ellipse_59" data-name="Ellipse 59" cx="71.5" cy="71.5" r="71.5" fill="#fff"/>
      <g id="Ellipse_54" data-name="Ellipse 54" transform="translate(13 13)" fill="none" stroke="#00613c" stroke-linecap="round" stroke-width="2" stroke-dasharray="2 7">
        <ellipse cx="59" cy="58.5" rx="59" ry="58.5" stroke="none"/>
        <ellipse cx="59" cy="58.5" rx="58" ry="57.5" fill="none"/>
      </g>
      <g id="Group_7013" data-name="Group 7013" transform="translate(37 55)">
        <g id="Group_186" data-name="Group 186" transform="translate(0 9.076)">
          <path id="Path_53226" data-name="Path 53226" d="M300.4,107.416V109.8H295.7v12.118h-4.705V100.39c-1.9.129-3.094,1.1-3.094,4.448,0,2.836.87,3.932,1.322,4.416-2.9,0-4.319-1.289-4.319-4.254,0-4.061,2.675-7.252,8.96-7.252,2.192,0,3.674.386,5.833.386a8.835,8.835,0,0,0,2.869-.386c-.032,3.416-1.289,3.867-2.772,3.867a22.688,22.688,0,0,1-4.093-.58v6.381Z" transform="translate(-284.902 -97.747)" fill="#00613c"/>
          <path id="Path_53227" data-name="Path 53227" d="M323.408,112.884v2c.935-1.128,2.127-2.16,3.481-2.16a2.918,2.918,0,0,1,2.772,2.869,1.777,1.777,0,0,1-1.869,1.9c-1.934,0-1.225-2.03-2.45-2.03-.644,0-1.257.548-1.934,1.29V129h-4.641V112.884Z" transform="translate(-300.912 -104.827)" fill="#00613c"/>
          <path id="Path_53228" data-name="Path 53228" d="M353.665,123.23h1.1c-1.192,2.965-3.255,5.963-7.638,5.963-3.707,0-6.349-2.127-6.349-7.381,0-3.738,1.45-9.089,6.833-9.089,4.093,0,4.19,3.062,4.19,3.739,0,3.835-3.127,5.866-6.317,6.027.065,2.869.838,4,3.159,4C351.247,126.485,352.44,125.067,353.665,123.23Zm-5.576-8.8c-1.45,0-2.45,3.03-2.611,6.51a4.3,4.3,0,0,0,3.835-4.448C349.313,115.011,348.7,114.431,348.089,114.431Z" transform="translate(-311.315 -104.827)" fill="#00613c"/>
          <path id="Path_53229" data-name="Path 53229" d="M378.224,122.479A15.254,15.254,0,0,1,374,126.6a5.937,5.937,0,0,1-4.512,1.837c-3.771,0-5.673-2.675-5.673-4.77a2.548,2.548,0,0,1,1.193-2.353,38.9,38.9,0,0,0,2.45-9.54l4.641-.645c2.16,8.347,2.8,9.6,2.8,12.763v.193a15.066,15.066,0,0,0,1.966-1.612Zm-11.8,1.579a1.17,1.17,0,0,1-.967-.419c.322,1.515,1.031,2.256,2.449,2.256a2.056,2.056,0,0,0,2.289-2.256c0-2.288-.451-3.352-1.773-8.187a52.336,52.336,0,0,1-1.773,5.963,1.471,1.471,0,0,1,.9,1.353A1.2,1.2,0,0,1,366.428,124.058Z" transform="translate(-322.209 -104.076)" fill="#00613c"/>
          <path id="Path_53230" data-name="Path 53230" d="M395.084,110.053c-1.16,0-1.74,1.353-1.87,2.965v10.346h-4.641V101.448l4.641-.645v8.122a3.817,3.817,0,0,1,3.384-1.805c2.514,0,4.577,1.45,4.577,5.8,0,1.418-.129,3.546-.129,4.77,0,1.805.355,2.74,1.708,2.74a1.779,1.779,0,0,0,1.032-.193c0,2.32-1,3.32-2.837,3.32-3.19,0-4.222-2.707-4.222-5.866,0-1.16.065-3.094.065-4.125C396.793,111.052,396.18,110.053,395.084,110.053Z" transform="translate(-333.913 -99.192)" fill="#00613c"/>
        </g>
        <path id="Path_53231" data-name="Path 53231" d="M342.576,94.761s.985-9.607-3.2-12.564c-4.308-3.041-11.086-.985-11.086-.985s-.616,6.282,2.956,10.1C334.457,94.747,342.576,94.761,342.576,94.761Z" transform="translate(-305.393 -80.533)" fill="url(#radial-gradient)"/>
        <path id="Path_53232" data-name="Path 53232" d="M329.247,83.3s-.37,6.036,2.956,8.869,8.253,3.08,8.006,2.094-2.71-4.435-5.173-6.652a45.836,45.836,0,0,0-4.065-3.326,18.577,18.577,0,0,1,6.775,4.681c2.71,2.956,3.942,5.42,4.434,5.789s.247-7.021-1.6-9.238C336.944,81.152,329.247,83.3,329.247,83.3Z" transform="translate(-305.86 -81.591)" fill="url(#radial-gradient-2)"/>
        <path id="Path_53233" data-name="Path 53233" d="M329.258,82.087s5.943-1.536,9.731.863c3.7,2.34,3.326,7.39,3.326,7.39s-.985-5.543-5.913-7.514A13.54,13.54,0,0,0,329.258,82.087Z" transform="translate(-305.871 -81.038)" fill="url(#linear-gradient)"/>
        <path id="Path_53234" data-name="Path 53234" d="M356.516,98.63a11.018,11.018,0,0,1,.123-5.789c1.417-4.188,7.761-3.572,7.761-3.572s.883,5.073-1.725,7.39C360.458,98.63,356.516,98.63,356.516,98.63Z" transform="translate(-318.594 -84.648)" fill="url(#radial-gradient-3)"/>
        <path id="Path_53235" data-name="Path 53235" d="M364.475,91s-4.557-.308-6.405,2.279c-1.4,1.966-.985,5.666-.492,4.927a37.554,37.554,0,0,1,3.2-3.942,11.929,11.929,0,0,1,2.587-1.868s-1.889,1.889-3.285,3.613-1.745,2.361-1.827,2.936,3.88.021,5.358-2.2S364.475,91,364.475,91Z" transform="translate(-319.039 -85.477)" fill="url(#radial-gradient-4)"/>
        <path id="Path_53236" data-name="Path 53236" d="M357.059,95.114s0-2.956,2.094-4.25a10.653,10.653,0,0,1,5.3-1.108,11.766,11.766,0,0,0-5.235,1.847A5.531,5.531,0,0,0,357.059,95.114Z" transform="translate(-319.014 -84.889)" fill="url(#linear-gradient-2)"/>
      </g>
      <text id="Fasal_Fresh" data-name="Fasal
Fresh" transform="translate(72 121)" fill="#00613c" font-size="22" font-family="Hellix-SemiBold, Hellix" font-weight="600" opacity="0"><tspan x="-25" y="0">Fasal</tspan><tspan x="-26" y="18">Fresh</tspan></text>
    </g>
    <g id="Component_20_1" data-name="Component 20 – 1" transform="translate(1479 573)">
      <circle id="Ellipse_59-2" data-name="Ellipse 59" cx="71.5" cy="71.5" r="71.5" fill="#fff"/>
      <g id="Ellipse_54-2" data-name="Ellipse 54" transform="translate(13 13)" fill="none" stroke="#00613c" stroke-linecap="round" stroke-width="2" stroke-dasharray="2 7">
        <ellipse cx="59" cy="58.5" rx="59" ry="58.5" stroke="none"/>
        <ellipse cx="59" cy="58.5" rx="58" ry="57.5" fill="none"/>
      </g>
      <path id="Icon_ionic-md-git-network" data-name="Icon ionic-md-git-network" d="M47.118,9.353A7.1,7.1,0,1,0,36.463,15.5v5.86L25.809,26.689,15.154,21.361V15.5a7.1,7.1,0,1,0-7.1,0V25.756l14.206,7.1v5.86a7.1,7.1,0,1,0,7.1,0v-5.86l14.206-7.1V15.5A7.117,7.117,0,0,0,47.118,9.353ZM11.6,4.914A4.439,4.439,0,1,1,7.164,9.353,4.438,4.438,0,0,1,11.6,4.914ZM25.809,49.307a4.439,4.439,0,1,1,4.439-4.439A4.438,4.438,0,0,1,25.809,49.307ZM40.015,13.792a4.439,4.439,0,1,1,4.439-4.439A4.438,4.438,0,0,1,40.015,13.792Z" transform="translate(46.191 44.39)" fill="#00613c"/>
      <text id="Fasal_System" data-name="Fasal
System" transform="translate(72 121)" fill="#00613c" font-size="22" font-family="Hellix-SemiBold, Hellix" font-weight="600" opacity="0"><tspan x="-25" y="0">Fasal</tspan><tspan x="-36" y="18">System</tspan></text>
    </g>
    <g id="Component_21_1" data-name="Component 21 – 1" transform="translate(1046 529)">
      <circle id="Ellipse_59-3" data-name="Ellipse 59" cx="71.5" cy="71.5" r="71.5" fill="#fff"/>
      <g id="Ellipse_54-3" data-name="Ellipse 54" transform="translate(13 13)" fill="none" stroke="#00613c" stroke-linecap="round" stroke-width="2" stroke-dasharray="2 7">
        <ellipse cx="59" cy="58.5" rx="59" ry="58.5" stroke="none"/>
        <ellipse cx="59" cy="58.5" rx="58" ry="57.5" fill="none"/>
      </g>
      <path id="Icon_awesome-users" data-name="Icon awesome-users" d="M7.915,18.08A5.277,5.277,0,1,0,2.638,12.8,5.281,5.281,0,0,0,7.915,18.08Zm36.936,0A5.277,5.277,0,1,0,39.574,12.8,5.281,5.281,0,0,0,44.85,18.08Zm2.638,2.638H42.212a5.261,5.261,0,0,0-3.718,1.533,12.06,12.06,0,0,1,6.192,9.02h5.441a2.635,2.635,0,0,0,2.638-2.638V25.994A5.281,5.281,0,0,0,47.489,20.718Zm-21.106,0a9.234,9.234,0,1,0-9.234-9.234A9.229,9.229,0,0,0,26.383,20.718Zm6.332,2.638H32.03a12.749,12.749,0,0,1-11.3,0h-.684a9.5,9.5,0,0,0-9.5,9.5v2.374a3.958,3.958,0,0,0,3.957,3.957H38.255a3.958,3.958,0,0,0,3.957-3.957V32.854A9.5,9.5,0,0,0,32.714,23.356Zm-18.443-1.1a5.261,5.261,0,0,0-3.718-1.533H5.277A5.281,5.281,0,0,0,0,25.994v2.638a2.635,2.635,0,0,0,2.638,2.638H8.071A12.09,12.09,0,0,1,14.271,22.251Z" transform="translate(46 50.75)" fill="#00613c"/>
      <text id="Fasal_Connect" data-name="Fasal
Connect" transform="translate(72 121)" fill="#00613c" font-size="22" font-family="Hellix-SemiBold, Hellix" font-weight="600" opacity="0"><tspan x="-25" y="0">Fasal</tspan><tspan x="-43" y="18">Connect</tspan></text>
    </g>
    <circle id="Ellipse_61" data-name="Ellipse 61" cx="9.5" cy="9.5" r="9.5" transform="translate(1304 737)" fill="#fff"/>
    <circle id="Ellipse_62" data-name="Ellipse 62" cx="9.5" cy="9.5" r="9.5" transform="translate(1585 372)" fill="#fff"/>
    <circle id="Ellipse_63" data-name="Ellipse 63" cx="9.5" cy="9.5" r="9.5" transform="translate(1114 339)" fill="#fff"/>
    <g id="Group_84" data-name="Group 84" transform="translate(1300 450.95)">
      <g id="Fasa" transform="translate(0 14.815)">
        <g id="Fasa-2" style="mix-blend-mode: normal;isolation: isolate">
          <g id="Group_6870" data-name="Group 6870" style="mix-blend-mode: normal;isolation: isolate">
            <path id="Path_41112" data-name="Path 41112" d="M105.79,159.29V162.5H99.454v16.317H93.118V149.829c-2.56.174-4.165,1.475-4.165,5.988,0,3.819,1.171,5.294,1.779,5.945-3.906,0-5.815-1.735-5.815-5.728,0-5.467,3.6-9.764,12.065-9.764,2.95,0,4.946.52,7.855.52a11.9,11.9,0,0,0,3.862-.52c-.043,4.6-1.736,5.207-3.732,5.207a30.591,30.591,0,0,1-5.511-.781v8.592Z" transform="translate(-84.916 -146.271)" fill="#fff"/>
            <path id="Path_41113" data-name="Path 41113" d="M126.485,157.364v14.755c0,2.43.564,3,2.257,3s2.907-1.649,3.081-3.819h1.822c-.954,7.073-5.033,8.029-7.377,8.029a4.765,4.765,0,0,1-5.164-3.992c-.911,2-2.516,3.992-5.6,3.992-3.646,0-7.638-2.517-7.638-10.069,0-5.294,2.257-12.108,8.289-12.108,1.432,0,3.342.261,4.079,2.3v-2.083Zm-6.249,4.166a2.235,2.235,0,0,0-2.126-1.692c-2.82,0-3.905,5.25-3.905,9.027,0,6.162,2.126,6.249,3.211,6.249,1.258,0,2.82-1.3,2.82-3.819Z" transform="translate(-85.432 -146.515)" fill="#fff"/>
            <path id="Path_41114" data-name="Path 41114" d="M150.351,171.269a20.532,20.532,0,0,1-5.685,5.554,7.993,7.993,0,0,1-6.075,2.474c-5.077,0-7.638-3.6-7.638-6.423a3.431,3.431,0,0,1,1.606-3.167,52.33,52.33,0,0,0,3.3-12.846l6.249-.868c2.907,11.24,3.775,12.933,3.775,17.185v.261a20.331,20.331,0,0,0,2.647-2.17ZM134.467,173.4a1.572,1.572,0,0,1-1.3-.564c.433,2.04,1.388,3.038,3.3,3.038a2.768,2.768,0,0,0,3.08-3.038c0-3.081-.607-4.513-2.386-11.023a70.375,70.375,0,0,1-2.387,8.028,1.981,1.981,0,0,1,1.215,1.822A1.617,1.617,0,0,1,134.467,173.4Z" transform="translate(-85.95 -146.489)" fill="#fff"/>
            <path id="Path_41115" data-name="Path 41115" d="M166.794,157.364v14.755c0,2.43.564,3,2.256,3a1.721,1.721,0,0,0,.868-.174c-.52,3.254-1.215,4.383-3.645,4.383-2.864,0-4.3-1.562-4.86-3.992-.911,2-2.517,3.992-5.6,3.992-3.645,0-7.637-2.517-7.637-10.069,0-5.294,2.256-12.108,8.289-12.108,1.432,0,3.342.261,4.079,2.3v-2.083Zm-12.282,11.5c0,6.162,2.127,6.249,3.212,6.249,1.258,0,2.82-1.259,2.82-3.776v-9.851a2.3,2.3,0,0,0-2.126-1.649C155.6,159.838,154.512,165.088,154.512,168.865Z" transform="translate(-86.337 -146.515)" fill="#fff"/>
          </g>
        </g>
      </g>
      <g id="Layer_5" data-name="Layer 5" transform="translate(83.671 14.684)">
        <g id="Ellipse_58-2" data-name="Ellipse 58" transform="translate(3.937 4.325)">
          <circle id="Ellipse_41" data-name="Ellipse 41" cx="1.976" cy="1.976" r="1.976" fill="#fff"/>
        </g>
        <g id="Path_11209" data-name="Path 11209">
          <path id="Path_41116" data-name="Path 41116" d="M177.249,163.7h0a2.014,2.014,0,0,0,2.779-.3c1.711-1.855,2.416-6.142,2.416-6.145h0s-4.042,1.6-5.493,3.663a2.182,2.182,0,0,0-.167.275l.045-3.306a2.009,2.009,0,0,0,.419.467h0a2.014,2.014,0,0,0,2.779-.3c1.711-1.855,2.416-6.142,2.416-6.145h0s-4.042,1.6-5.493,3.663c-.033.046-.064.093-.094.142l.019-1.362a2.051,2.051,0,0,0,1.522-1.923c.166-2.518-1.975-6.3-1.976-6.3h0s-2.143,3.783-1.977,6.3a2.037,2.037,0,0,0,1.64,1.946h0l.018,1.35c-.031-.053-.065-.106-.1-.155-1.452-2.064-5.491-3.662-5.493-3.663h0s.706,4.289,2.416,6.145a2.014,2.014,0,0,0,2.779.3h0a2.028,2.028,0,0,0,.426-.478l.044,3.33a2.39,2.39,0,0,0-.173-.287c-1.452-2.065-5.491-3.662-5.493-3.663h0s.706,4.289,2.416,6.145a2.014,2.014,0,0,0,2.779.3h0a1.969,1.969,0,0,0,.5-.6l.05,3.759a2.365,2.365,0,0,0-.248-.449c-1.451-2.065-5.491-3.662-5.493-3.663h0s.706,4.289,2.416,6.145a2.014,2.014,0,0,0,2.779.3h0a1.933,1.933,0,0,0,.567-.745l.054,4.062a2.309,2.309,0,0,0-.323-.654c-1.452-2.064-5.491-3.662-5.493-3.663h0s.706,4.289,2.416,6.144a2.013,2.013,0,0,0,2.779.3h0a1.906,1.906,0,0,0,.636-.937l.09,6.779h.094l.091-6.768a1.922,1.922,0,0,0,.633.926h0a2.013,2.013,0,0,0,2.779-.3c1.711-1.854,2.416-6.141,2.416-6.144h0s-4.042,1.6-5.493,3.663a2.3,2.3,0,0,0-.32.643l.055-4.04a1.945,1.945,0,0,0,.562.733h0a2.014,2.014,0,0,0,2.779-.3c1.711-1.855,2.416-6.142,2.416-6.145h0s-4.042,1.6-5.493,3.663a2.262,2.262,0,0,0-.242.436l.05-3.735A1.964,1.964,0,0,0,177.249,163.7Z" transform="translate(-170.51 -146.137)" fill="#fff"/>
        </g>
      </g>
      <g id="Layer_6" data-name="Layer 6" transform="translate(85.757)">
        <g id="Path_11210" data-name="Path 11210" transform="translate(2.039 6.138)">
          <path id="Path_41117" data-name="Path 41117" d="M174.729,137.4h0l.019.072Z" transform="translate(-174.729 -137.395)" fill="#469ae3"/>
        </g>
        <g id="Group_80" data-name="Group 80">
          <g id="Ellipse_59-4" data-name="Ellipse 59" transform="translate(3.145 12.147)">
            <circle id="Ellipse_42" data-name="Ellipse 42" cx="0.966" cy="0.966" r="0.966" fill="#469ae3"/>
          </g>
          <g id="Path_11211" data-name="Path 11211" transform="translate(1.789 8.193)">
            <path id="Path_41118" data-name="Path 41118" d="M176.571,139.5a5.272,5.272,0,0,0-1.359.18.922.922,0,0,0,.184,1.826.971.971,0,0,0,.254-.036v0a3.425,3.425,0,0,1,4.22,2.374c.029.108.055.216.074.326h0a.922.922,0,0,0,1.829-.167.938.938,0,0,0-.027-.221A5.271,5.271,0,0,0,176.571,139.5Z" transform="translate(-174.473 -139.497)" fill="#469ae3"/>
          </g>
          <g id="Path_11212" data-name="Path 11212" transform="translate(0.896 4.065)">
            <path id="Path_41119" data-name="Path 41119" d="M176.55,135.274a9.419,9.419,0,0,0-2.289.281h0a.921.921,0,1,0,.442,1.788v0a7.558,7.558,0,0,1,9.174,5.485c.019.076.037.152.054.229h0a.923.923,0,0,0,1.826-.188.907.907,0,0,0-.027-.218A9.4,9.4,0,0,0,176.55,135.274Z" transform="translate(-173.56 -135.274)" fill="#469ae3"/>
          </g>
          <g id="Path_11213" data-name="Path 11213">
            <path id="Path_41120" data-name="Path 41120" d="M189.529,141.444h0a13.454,13.454,0,0,0-16.138-9.977l-.029.006-.014,0h0a.922.922,0,0,0,.218,1.817.866.866,0,0,0,.218-.027v0a11.611,11.611,0,0,1,13.944,8.581h0a.922.922,0,0,0,1.821-.2A.826.826,0,0,0,189.529,141.444Z" transform="translate(-172.643 -131.116)" fill="#469ae3"/>
          </g>
        </g>
      </g>
    </g>
  </g>
</svg>
