<svg xmlns="http://www.w3.org/2000/svg" xmlns:xlink="http://www.w3.org/1999/xlink" width="676" height="696" viewBox="0 0 676 696">
  <defs>
    <clipPath id="clip-path">
      <rect id="Rectangle_1750" data-name="Rectangle 1750" width="676" height="696" transform="translate(1244 5946)" fill="#fff"/>
    </clipPath>
    <linearGradient id="linear-gradient" x1="0.161" y1="0.129" x2="0.711" y2="0.941" gradientUnits="objectBoundingBox">
      <stop offset="0" stop-color="#fff" stop-opacity="0.012"/>
      <stop offset="1" stop-color="#fff"/>
    </linearGradient>
  </defs>
  <g id="Mask_Group_68" data-name="Mask Group 68" transform="translate(-1244 -5946)" clip-path="url(#clip-path)">
    <path id="svg" d="M827.265,260.382V146.071H969.45v-21.46H933.445V56.51H969.45V35.05H933.445V1H912.006V35.05H833.124L805.83,59.085v65.526H589.475V1H568.039V204.729h-82.6V78.4L461.577,54.507H449.144V1H427.708V54.507H320.817V1H299.381V54.507H214.64V1H193.2V54.507H1v21.46H193.2V226.189H463.863V473.982H354.685V432.206h63.306V364.249L394.7,340.929H294.523V292.715l-22.007-22.032H79.454V536.646H1v21.46H79.454v48.929H1V628.5H79.454v72.821H100.89V292.143h172.2V362.39H396.556v48.356h-177.2L193.2,437.071V701.317H214.64V591.584H333.249V701.317h21.435V495.442h41.443V701.317h21.435V495.442h64.592v-.286H609.2V570.7H488.3l-24.293,24.321V701.174h140.76v.143H626.2v-21.6H485.3V644.519H673.645v56.8H695.08V579.423h44.442v75.826h118.9v46.068h21.435V657.395l-23.579-23.606H760.958V557.963H695.08V495.156h65.449l41.87.143-14.718,14.736,10.288,10.3L833.7,484.57,797.97,448.8l-10.288,10.3L802.4,473.839H630.488V420.618h99.746V226.189h75.452v30.044L831.124,281.7h138.19v-21.46H827.265Zm0-203.871h84.6v68.1h-84.6ZM299.381,204.729H214.64V75.968h84.6V204.729Zm33.868,365.395H214.64V495.442H333.249Zm0-96.141H214.64V432.206H333.249ZM464.006,204.729H320.817V75.968H464.006Zm21.435,21.46H609.2v27.755H485.441Zm0,247.507V275.4H609.2V473.7Zm188.346,21.46v127.9H485.441V592.013H605.765l25.009-25.037V495.013h43.013Zm35.155-96.141H630.631V226.189h78.311ZM805.83,204.729H589.475V146.071H805.687v58.658Z" transform="translate(1243 5944.683)" opacity="0.03" fill="url(#linear-gradient)"/>
  </g>
</svg>
