<svg xmlns="http://www.w3.org/2000/svg" xmlns:xlink="http://www.w3.org/1999/xlink" width="444" height="572" viewBox="0 0 444 572">
  <defs>
    <clipPath id="clip-path">
      <rect id="Rectangle_1751" data-name="Rectangle 1751" width="444" height="572" transform="translate(1476 2021)" fill="#fff"/>
    </clipPath>
    <linearGradient id="linear-gradient" x1="0.623" y1="0.686" x2="1.199" y2="1.033" gradientUnits="objectBoundingBox">
      <stop offset="0" stop-color="#00613c"/>
      <stop offset="1" stop-color="#fff" stop-opacity="0"/>
    </linearGradient>
  </defs>
  <g id="Mask_Group_70" data-name="Mask Group 70" transform="translate(-1476 -2021)" clip-path="url(#clip-path)">
    <path id="svg" d="M110.334,201.278v-88.7H0V95.921H27.94V43.075H0V26.423H27.94V0H44.576V26.423h61.211l21.18,18.651V95.921H294.857V0h16.634V158.091h64.1V60.061L394.1,41.521h9.647V0h16.634V41.521h82.946V0h16.634V41.521h65.759V0h16.634V41.521H751.507V58.174H602.359v116.57H392.331V367.029h84.721V334.611H427.927V281.878L446,263.781h77.735V226.368l17.077-17.1H690.628V415.656h60.879v16.653H690.628v37.968h60.879V486.93H690.628v56.508H673.994V225.924H540.37v54.511H444.56v37.524H582.065l20.293,20.428V543.438H585.725V458.287h-92.04v85.152H477.052V383.682H444.893V543.438H428.259V383.682H378.137v-.222H279.554v58.618h93.814l18.851,18.873v82.376H282.992v.111H266.358V526.674H375.7V499.364H229.542v44.075H212.908V448.85H178.421v58.84H86.16v35.748H69.526V509.355l18.3-18.318h73.965V432.2h51.12V383.46H162.12l-32.491.111,11.421,11.435L133.067,403l-27.723-27.754,27.723-27.755,7.984,7.994L129.63,366.918h133.4v-41.3h-77.4V174.744h-58.55v23.314L107.34,217.819H.106V201.166H110.334Zm0-158.2H44.689V95.921h65.645ZM519.966,158.091h65.759V58.174H520.077v99.917ZM493.685,441.634h92.04V383.682h-92.04Zm0-74.6h92.04V334.611h-92.04ZM392.22,158.091H503.333V58.174H392.22Zm-16.634,16.653H279.554v21.538h96.032Zm0,192.063V212.934H279.554V366.807ZM229.432,383.46v99.251H375.586V458.62h-93.37l-19.406-19.428V383.349H229.432Zm-27.28-74.6H262.92V174.744H202.152ZM126.968,158.091H294.857V112.574H127.079v45.518Z" transform="translate(2381.056 2137.051) rotate(138)" opacity="0.05" fill="url(#linear-gradient)"/>
  </g>
</svg>
