<svg xmlns="http://www.w3.org/2000/svg" width="41.885" height="41.885" viewBox="0 0 41.885 41.885">
  <g id="twittericon" transform="translate(0.75 0.75)" opacity="0.5">
    <path id="Path_50" data-name="Path 50" d="M280.309,168.89h0A20.193,20.193,0,0,1,260.116,148.7h0a20.193,20.193,0,0,1,20.193-20.193h0A20.192,20.192,0,0,1,300.5,148.7h0A20.192,20.192,0,0,1,280.309,168.89Z" transform="translate(-260.116 -128.505)" fill="none" stroke="#fff" stroke-width="1.5"/>
    <path id="Path_51" data-name="Path 51" d="M269.007,155.067a12.032,12.032,0,0,0,6.665,2.017c8.072,0,12.632-7.042,12.358-13.358A8.979,8.979,0,0,0,290.2,141.4a8.456,8.456,0,0,1-2.5.707,4.474,4.474,0,0,0,1.911-2.485,8.555,8.555,0,0,1-2.76,1.09,4.284,4.284,0,0,0-3.175-1.417,4.46,4.46,0,0,0-4.234,5.513,12.213,12.213,0,0,1-8.961-4.692,4.586,4.586,0,0,0,1.345,6,4.23,4.23,0,0,1-1.97-.562,4.467,4.467,0,0,0,3.487,4.461,4.218,4.218,0,0,1-1.962.076,4.37,4.37,0,0,0,4.061,3.119A8.545,8.545,0,0,1,269.007,155.067Z" transform="translate(-259.41 -127.997)" fill="#fff"/>
  </g>
</svg>
