<svg xmlns="http://www.w3.org/2000/svg" width="41.885" height="41.885" viewBox="0 0 41.885 41.885">
  <g id="twittericon" transform="translate(1.042 0.75)" opacity="0.5">
    <path id="Path_50" data-name="Path 50" d="M280.309,168.89h0A20.193,20.193,0,0,1,260.116,148.7h0a20.193,20.193,0,0,1,20.193-20.193h0A20.192,20.192,0,0,1,300.5,148.7h0A20.192,20.192,0,0,1,280.309,168.89Z" transform="translate(-260.408 -128.505)" fill="none" stroke="#fff" stroke-width="1.5"/>
    <g id="Group_6988" data-name="Group 6988" transform="translate(11.208 9.857)">
      <g id="Group_36" data-name="Group 36">
        <rect id="Rectangle_13" data-name="Rectangle 13" width="3.861" height="12.473" transform="translate(0.371 6.236)" fill="#fff"/>
        <path id="Path_54" data-name="Path 54" d="M328.157,195.459a2.3,2.3,0,1,0-2.283-2.3A2.293,2.293,0,0,0,328.157,195.459Z" transform="translate(-325.874 -190.857)" fill="#fff"/>
      </g>
      <path id="Path_55" data-name="Path 55" d="M336.413,203.136c0-1.753.807-2.8,2.352-2.8,1.42,0,2.1,1,2.1,2.8v6.547h3.843v-7.9c0-3.341-1.894-4.956-4.539-4.956a4.348,4.348,0,0,0-3.758,2.061v-1.679h-3.7v12.472h3.7Z" transform="translate(-326.009 -190.975)" fill="#fff"/>
    </g>
  </g>
</svg>
