<svg xmlns="http://www.w3.org/2000/svg" width="41.885" height="41.885" viewBox="0 0 41.885 41.885">
  <g id="youtubeicon" transform="translate(0.75 0.75)" opacity="0.5">
    <path id="Path_47" data-name="Path 47" d="M335.7,330.665h0a20.192,20.192,0,0,1-20.192-20.192h0A20.192,20.192,0,0,1,335.7,290.28h0A20.192,20.192,0,0,1,355.9,310.473h0A20.192,20.192,0,0,1,335.7,330.665Z" transform="translate(-315.511 -290.28)" fill="none" stroke="#fff" stroke-width="1.5"/>
    <g id="Group_31" data-name="Group 31" transform="translate(6.533 11.284)">
      <path id="Subtraction_13" data-name="Subtraction 13" d="M6964.034-6962.023c-.084,0-8.4-.006-10.462-.553a3.339,3.339,0,0,1-2.369-2.344,34.351,34.351,0,0,1-.559-6.378,34.377,34.377,0,0,1,.559-6.38,3.337,3.337,0,0,1,2.369-2.342c2.064-.547,10.378-.554,10.462-.554s8.4.006,10.462.554a3.337,3.337,0,0,1,2.369,2.342,34.377,34.377,0,0,1,.559,6.38,34.351,34.351,0,0,1-.559,6.378,3.339,3.339,0,0,1-2.369,2.344C6972.432-6962.029,6964.118-6962.023,6964.034-6962.023Zm-2.675-13.191h0v7.831l6.881-3.915-6.881-3.916Z" transform="translate(-6950.645 6980.575)" fill="#fff" stroke="rgba(0,0,0,0)" stroke-width="1"/>
    </g>
  </g>
</svg>
